<?xml version="1.0" encoding="UTF-8" standalone="no"?>
<!--Generator: Xara Designer (www.xara.com), SVG filter version: 3.0.2.3-->

<svg
   xmlns:dc="http://purl.org/dc/elements/1.1/"
   xmlns:cc="http://creativecommons.org/ns#"
   xmlns:rdf="http://www.w3.org/1999/02/22-rdf-syntax-ns#"
   xmlns:svg="http://www.w3.org/2000/svg"
   xmlns="http://www.w3.org/2000/svg"
   xmlns:xlink="http://www.w3.org/1999/xlink"
   xmlns:sodipodi="http://sodipodi.sourceforge.net/DTD/sodipodi-0.dtd"
   xmlns:inkscape="http://www.inkscape.org/namespaces/inkscape"
   version="1.1"
   overflow="visible"
   width="32"
   height="32"
   viewBox="0 0 25.600005 25.600001"
   id="svg2"
   inkscape:version="0.48.4 r9939"
   sodipodi:docname="Новый документ 1"
   style="fill-rule:evenodd;stroke-width:0.50099999;stroke-linejoin:bevel;overflow:visible">
  <script
     xlink:href=""
     id="script3301" />
  <script
     xlink:href=""
     id="script3299" />
  <metadata
     id="metadata322">
    <rdf:RDF>
      <cc:Work
         rdf:about="">
        <dc:format>image/svg+xml</dc:format>
        <dc:type
           rdf:resource="http://purl.org/dc/dcmitype/StillImage" />
        <dc:title></dc:title>
      </cc:Work>
    </rdf:RDF>
  </metadata>
  <sodipodi:namedview
     pagecolor="#ffffff"
     bordercolor="#666666"
     borderopacity="1"
     objecttolerance="10"
     gridtolerance="10"
     guidetolerance="10"
     inkscape:pageopacity="0"
     inkscape:pageshadow="2"
     inkscape:window-width="1858"
     inkscape:window-height="1058"
     id="namedview320"
     showgrid="false"
     inkscape:zoom="14.250004"
     inkscape:cx="23.789457"
     inkscape:cy="10.943206"
     inkscape:window-x="-8"
     inkscape:window-y="-8"
     inkscape:window-maximized="1"
     inkscape:current-layer="svg2"
     height="744.09px"
     width="512px" />
  <defs
     id="defs4">
    <marker
       id="DefaultArrow2"
       markerUnits="strokeWidth"
       viewBox="0 0 1 1"
       markerWidth="1"
       markerHeight="1"
       overflow="visible"
       orient="auto"
       style="overflow:visible">
      <!-- REF_ARROW_STRAIGHT (-2) -->
      <g
         transform="scale(0.00925926,0.00925926)"
         id="g7">
        <!-- 1/108 -->
        <path
           d="M -9,54 -9,-54 117,0 z"
           id="path9"
           inkscape:connector-curvature="0" />
      </g>
    </marker>
    <marker
       id="DefaultArrow3"
       markerUnits="strokeWidth"
       viewBox="0 0 1 1"
       markerWidth="1"
       markerHeight="1"
       overflow="visible"
       orient="auto"
       style="overflow:visible">
      <!-- REF_ARROW_ANGLED -->
      <g
         transform="scale(0.00925926,0.00925926)"
         id="g12">
        <path
           d="M -27,54 -9,0 -27,-54 135,0 z"
           id="path14"
           inkscape:connector-curvature="0" />
      </g>
    </marker>
    <marker
       id="DefaultArrow4"
       markerUnits="strokeWidth"
       viewBox="0 0 1 1"
       markerWidth="1"
       markerHeight="1"
       overflow="visible"
       orient="auto"
       style="overflow:visible">
      <!-- REF_ARROW_ROUNDED -->
      <g
         transform="scale(0.00925926,0.00925926)"
         id="g17">
        <path
           d="M -9,0 -9,-45 C -9,-51.708 2.808,-56.58 9,-54 L 117,-9 C 120.916,-7.369 126,-4.242 126,0 126,4.242 120.916,7.369 117,9 L 9,54 C 2.808,56.58 -9,51.708 -9,45 z"
           id="path19"
           inkscape:connector-curvature="0" />
      </g>
    </marker>
    <marker
       id="DefaultArrow5"
       markerUnits="strokeWidth"
       viewBox="0 0 1 1"
       markerWidth="1"
       markerHeight="1"
       overflow="visible"
       orient="auto"
       style="overflow:visible">
      <!-- REF_ARROW_SPOT -->
      <g
         transform="scale(0.00925926,0.00925926)"
         id="g22">
        <path
           d="M -54,0 C -54,29.807 -29.807,54 0,54 29.807,54 54,29.807 54,0 54,-29.807 29.807,-54 0,-54 -29.807,-54 -54,-29.807 -54,0 z"
           id="path24"
           inkscape:connector-curvature="0" />
      </g>
    </marker>
    <marker
       id="DefaultArrow6"
       markerUnits="strokeWidth"
       viewBox="0 0 1 1"
       markerWidth="1"
       markerHeight="1"
       overflow="visible"
       orient="auto"
       style="overflow:visible">
      <!-- REF_ARROW_DIAMOND -->
      <g
         transform="scale(0.00925926,0.00925926)"
         id="g27">
        <path
           d="M -63,0 0,63 63,0 0,-63 z"
           id="path29"
           inkscape:connector-curvature="0" />
      </g>
    </marker>
    <marker
       id="DefaultArrow7"
       markerUnits="strokeWidth"
       viewBox="0 0 1 1"
       markerWidth="1"
       markerHeight="1"
       overflow="visible"
       orient="auto"
       style="overflow:visible">
      <!-- REF_ARROW_FEATHER -->
      <g
         transform="scale(0.00925926,0.00925926)"
         id="g32">
        <path
           d="M 18,-54 108,-54 63,0 108,54 18,54 -36,0 z"
           id="path34"
           inkscape:connector-curvature="0" />
      </g>
    </marker>
    <marker
       id="DefaultArrow8"
       markerUnits="strokeWidth"
       viewBox="0 0 1 1"
       markerWidth="1"
       markerHeight="1"
       overflow="visible"
       orient="auto"
       style="overflow:visible">
      <!-- REF_ARROW_FEATHER2 -->
      <g
         transform="scale(0.00925926,0.00925926)"
         id="g37">
        <path
           d="M -36,0 18,-54 54,-54 18,-18 27,-18 63,-54 99,-54 63,-18 72,-18 108,-54 144,-54 90,0 144,54 108,54 72,18 63,18 99,54 63,54 27,18 18,18 54,54 18,54 z"
           id="path39"
           inkscape:connector-curvature="0" />
      </g>
    </marker>
    <marker
       id="DefaultArrow9"
       markerUnits="strokeWidth"
       viewBox="0 0 1 1"
       markerWidth="1"
       markerHeight="1"
       overflow="visible"
       orient="auto"
       style="overflow:visible">
      <!-- REF_ARROW_HOLLOWDIAMOND -->
      <g
         transform="scale(0.00925926,0.00925926)"
         id="g42">
        <path
           d="M 0,45 -45,0 0,-45 45,0 z M 0,63 -63,0 0,-63 63,0 z"
           id="path44"
           inkscape:connector-curvature="0" />
      </g>
    </marker>
    <filter
       id="StainedFilter"
       color-interpolation-filters="sRGB">
      <feBlend
         mode="multiply"
         in2="BackgroundImage"
         in="SourceGraphic"
         result="blend"
         id="feBlend47" />
      <feComposite
         in="blend"
         in2="SourceAlpha"
         operator="in"
         result="comp"
         id="feComposite49" />
    </filter>
    <filter
       id="BleachFilter"
       color-interpolation-filters="sRGB">
      <feBlend
         mode="screen"
         in2="BackgroundImage"
         in="SourceGraphic"
         result="blend"
         id="feBlend52" />
      <feComposite
         in="blend"
         in2="SourceAlpha"
         operator="in"
         result="comp"
         id="feComposite54" />
    </filter>
    <filter
       id="InvertTransparencyBitmapFilter"
       color-interpolation-filters="sRGB">
      <feComponentTransfer
         id="feComponentTransfer57">
        <feFuncR
           type="gamma"
           amplitude="1.055"
           exponent=".416666666"
           offset="-0.055"
           id="feFuncR59" />
        <feFuncG
           type="gamma"
           amplitude="1.055"
           exponent=".416666666"
           offset="-0.055"
           id="feFuncG61" />
        <feFuncB
           type="gamma"
           amplitude="1.055"
           exponent=".416666666"
           offset="-0.055"
           id="feFuncB63" />
      </feComponentTransfer>
      <feComponentTransfer
         id="feComponentTransfer65">
        <feFuncR
           type="linear"
           slope="-1"
           intercept="1"
           id="feFuncR67" />
        <feFuncG
           type="linear"
           slope="-1"
           intercept="1"
           id="feFuncG69" />
        <feFuncB
           type="linear"
           slope="-1"
           intercept="1"
           id="feFuncB71" />
        <feFuncA
           type="linear"
           slope="1"
           intercept="0"
           id="feFuncA73" />
      </feComponentTransfer>
      <feComponentTransfer
         id="feComponentTransfer75">
        <feFuncR
           type="gamma"
           amplitude="1"
           exponent="2.4"
           offset="0"
           id="feFuncR77" />
        <feFuncG
           type="gamma"
           amplitude="1"
           exponent="2.4"
           offset="0"
           id="feFuncG79" />
        <feFuncB
           type="gamma"
           amplitude="1"
           exponent="2.4"
           offset="0"
           id="feFuncB81" />
      </feComponentTransfer>
    </filter>
    <radialGradient
       id="RadialGradient"
       gradientUnits="userSpaceOnUse"
       cx="0"
       cy="0"
       r="237.42799"
       gradientTransform="matrix(0,-1,0.886054,0,172.174,122.358)">
      <stop
         offset="0"
         stop-color="#473600"
         id="stop84" />
      <stop
         offset="0.792135000228882"
         stop-color="#3d2f00"
         id="stop86" />
      <stop
         offset="0.990000009536743"
         stop-color="#3a2c00"
         id="stop88" />
      <stop
         offset="1"
         stop-color="#3a2c00"
         id="stop90" />
    </radialGradient>
    <radialGradient
       id="RadialGradient_1"
       gradientUnits="userSpaceOnUse"
       cx="0"
       cy="0"
       r="237.42799"
       gradientTransform="matrix(0,-1,0.886054,0,170.916,119.88)">
      <stop
         offset="0"
         stop-color="#553e00"
         id="stop93" />
      <stop
         offset="0.792135000228882"
         stop-color="#403200"
         id="stop95" />
      <stop
         offset="0.990000009536743"
         stop-color="#3b2b00"
         id="stop97" />
      <stop
         offset="1"
         stop-color="#3b2b00"
         id="stop99" />
    </radialGradient>
    <radialGradient
       id="RadialGradient_2"
       gradientUnits="userSpaceOnUse"
       cx="0"
       cy="0"
       r="237.42799"
       gradientTransform="matrix(0,-1,0.886054,0,169.66,117.403)">
      <stop
         offset="0"
         stop-color="#634700"
         id="stop102" />
      <stop
         offset="0.792135000228882"
         stop-color="#443400"
         id="stop104" />
      <stop
         offset="0.990000009536743"
         stop-color="#3c2a00"
         id="stop106" />
      <stop
         offset="1"
         stop-color="#3c2a00"
         id="stop108" />
    </radialGradient>
    <radialGradient
       id="RadialGradient_3"
       gradientUnits="userSpaceOnUse"
       cx="0"
       cy="0"
       r="237.42799"
       gradientTransform="matrix(0,-1,0.886054,0,168.403,114.925)">
      <stop
         offset="0"
         stop-color="#724f00"
         id="stop111" />
      <stop
         offset="0.792135000228882"
         stop-color="#473600"
         id="stop113" />
      <stop
         offset="0.990000009536743"
         stop-color="#3c2900"
         id="stop115" />
      <stop
         offset="1"
         stop-color="#3c2900"
         id="stop117" />
    </radialGradient>
    <radialGradient
       id="RadialGradient_4"
       gradientUnits="userSpaceOnUse"
       cx="0"
       cy="0"
       r="237.42799"
       gradientTransform="matrix(0,-1,0.886054,0,167.146,112.448)">
      <stop
         offset="0"
         stop-color="#805800"
         id="stop120" />
      <stop
         offset="0.792135000228882"
         stop-color="#4b3800"
         id="stop122" />
      <stop
         offset="0.990000009536743"
         stop-color="#3d2800"
         id="stop124" />
      <stop
         offset="1"
         stop-color="#3d2800"
         id="stop126" />
    </radialGradient>
    <radialGradient
       id="RadialGradient_5"
       gradientUnits="userSpaceOnUse"
       cx="0"
       cy="0"
       r="237.42799"
       gradientTransform="matrix(0,-1,0.886054,0,165.889,109.97)">
      <stop
         offset="0"
         stop-color="#8e6000"
         id="stop129" />
      <stop
         offset="0.792135000228882"
         stop-color="#4e3b00"
         id="stop131" />
      <stop
         offset="0.990000009536743"
         stop-color="#3e2700"
         id="stop133" />
      <stop
         offset="1"
         stop-color="#3e2700"
         id="stop135" />
    </radialGradient>
    <radialGradient
       id="RadialGradient_6"
       gradientUnits="userSpaceOnUse"
       cx="0"
       cy="0"
       r="237.42799"
       gradientTransform="matrix(0,-1,0.886054,0,164.632,107.493)">
      <stop
         offset="0"
         stop-color="#9c6900"
         id="stop138" />
      <stop
         offset="0.792135000228882"
         stop-color="#523d00"
         id="stop140" />
      <stop
         offset="0.990000009536743"
         stop-color="#3f2600"
         id="stop142" />
      <stop
         offset="1"
         stop-color="#3f2600"
         id="stop144" />
    </radialGradient>
    <linearGradient
       id="LinearGradient"
       gradientUnits="userSpaceOnUse"
       x1="0"
       y1="0"
       x2="42.75"
       y2="36.75"
       gradientTransform="translate(218.601,165.399)">
      <stop
         offset="0"
         stop-color="#5c5c5c"
         id="stop147" />
      <stop
         offset="1"
         stop-color="#000000"
         id="stop149" />
    </linearGradient>
    <linearGradient
       id="LinearGradient_1"
       gradientUnits="userSpaceOnUse"
       x1="0"
       y1="0"
       x2="-9.6719999"
       y2="-141.858"
       gradientTransform="translate(181.122,157.792)">
      <stop
         offset="0"
         stop-color="#ffffff"
         id="stop152" />
      <stop
         offset="1"
         stop-color="#cfd1d2"
         id="stop154" />
    </linearGradient>
    <linearGradient
       id="LinearGradient_2"
       gradientUnits="userSpaceOnUse"
       x1="0"
       y1="0"
       x2="69.75"
       y2="-189.75"
       gradientTransform="translate(259.851,172.899)">
      <stop
         offset="0"
         stop-color="#b5b5b5"
         id="stop157" />
      <stop
         offset="1"
         stop-color="#000000"
         id="stop159" />
    </linearGradient>
    <linearGradient
       id="LinearGradient_3"
       gradientUnits="userSpaceOnUse"
       x1="0"
       y1="0"
       x2="-51.527"
       y2="-64.410004"
       gradientTransform="translate(204.11,87.059)">
      <stop
         offset="0"
         stop-color="#df9000"
         id="stop162" />
      <stop
         offset="0.730337023735046"
         stop-color="#7f5200"
         id="stop164" />
      <stop
         offset="0.990000009536743"
         stop-color="#3f2600"
         id="stop166" />
      <stop
         offset="1"
         stop-color="#3f2600"
         id="stop168" />
    </linearGradient>
    <linearGradient
       id="LinearGradient_4"
       gradientUnits="userSpaceOnUse"
       x1="0"
       y1="0"
       x2="19.041"
       y2="85.190002"
       gradientTransform="translate(199.945,96.333)">
      <stop
         offset="0"
         stop-color="#ba7d00"
         id="stop171" />
      <stop
         offset="0.792135000228882"
         stop-color="#7f5200"
         id="stop173" />
      <stop
         offset="0.990000009536743"
         stop-color="#3f2600"
         id="stop175" />
      <stop
         offset="1"
         stop-color="#3f2600"
         id="stop177" />
    </linearGradient>
    <linearGradient
       id="LinearGradient_5"
       gradientUnits="userSpaceOnUse"
       x1="0"
       y1="0"
       x2="-1.007"
       y2="-63.535999"
       gradientTransform="translate(129.134,111.014)">
      <stop
         offset="0"
         stop-color="#df9000"
         id="stop180" />
      <stop
         offset="0.792135000228882"
         stop-color="#7f5200"
         id="stop182" />
      <stop
         offset="0.990000009536743"
         stop-color="#3f2600"
         id="stop184" />
      <stop
         offset="1"
         stop-color="#3f2600"
         id="stop186" />
    </linearGradient>
    <linearGradient
       id="LinearGradient_6"
       gradientUnits="userSpaceOnUse"
       x1="0"
       y1="0"
       x2="15.098"
       y2="58.375"
       gradientTransform="translate(129.286,104.867)">
      <stop
         offset="0"
         stop-color="#df9000"
         id="stop189" />
      <stop
         offset="0.792135000228882"
         stop-color="#7f5200"
         id="stop191" />
      <stop
         offset="0.990000009536743"
         stop-color="#3f2600"
         id="stop193" />
      <stop
         offset="1"
         stop-color="#3f2600"
         id="stop195" />
    </linearGradient>
    <radialGradient
       id="RadialGradient_7"
       gradientUnits="userSpaceOnUse"
       cx="0"
       cy="0"
       r="38.716999"
       gradientTransform="matrix(0.69735527,-0.71672563,1.2319152,1.1986212,183.351,196.899)">
      <stop
         offset="0"
         stop-color="#6b4c29"
         id="stop198" />
      <stop
         offset="1"
         stop-color="#a57348"
         id="stop200" />
    </radialGradient>
    <radialGradient
       id="RadialGradient_8"
       gradientUnits="userSpaceOnUse"
       cx="0"
       cy="0"
       r="120.999"
       gradientTransform="matrix(0,-1,0.973942,0,134.346,314.993)">
      <stop
         offset="0"
         stop-color="#e0bf9e"
         id="stop203" />
      <stop
         offset="1.68539006263018E-02"
         stop-color="#e0bf9e"
         id="stop205" />
      <stop
         offset="0.202246993780136"
         stop-color="#e6b891"
         id="stop207" />
      <stop
         offset="1"
         stop-color="#7b5d39"
         id="stop209" />
    </radialGradient>
    <radialGradient
       id="RadialGradient_9"
       gradientUnits="userSpaceOnUse"
       cx="0"
       cy="0"
       r="87.054001"
       gradientTransform="matrix(-0.01429027,-0.99989789,1.2061368,-0.01723778,146.601,370.899)">
      <stop
         offset="0"
         stop-color="#9a9a9a"
         id="stop212" />
      <stop
         offset="1"
         stop-color="#313131"
         id="stop214" />
    </radialGradient>
    <linearGradient
       id="LinearGradient_7"
       gradientUnits="userSpaceOnUse"
       x1="0"
       y1="0"
       x2="-54"
       y2="-87"
       gradientTransform="translate(213.351,257.649)">
      <stop
         offset="0"
         stop-color="#484848"
         id="stop217" />
      <stop
         offset="1"
         stop-color="#000000"
         id="stop219" />
    </linearGradient>
    <linearGradient
       id="LinearGradient_8"
       gradientUnits="userSpaceOnUse"
       x1="0"
       y1="0"
       x2="10.5"
       y2="-85.5"
       gradientTransform="translate(133.101,343.149)">
      <stop
         offset="0"
         stop-color="#8d8d8d"
         id="stop222" />
      <stop
         offset="1"
         stop-color="#000000"
         id="stop224" />
    </linearGradient>
    <linearGradient
       id="LinearGradient_9"
       gradientUnits="userSpaceOnUse"
       x1="0"
       y1="0"
       x2="3.5999999"
       y2="-129"
       gradientTransform="translate(239.24,380.259)">
      <stop
         offset="0"
         stop-color="#ffffff"
         id="stop227" />
      <stop
         offset="1"
         stop-color="#000000"
         id="stop229" />
    </linearGradient>
    <linearGradient
       id="LinearGradient_10"
       gradientUnits="userSpaceOnUse"
       x1="0"
       y1="0"
       x2="108"
       y2="-33.75"
       gradientTransform="translate(115.007,352.336)">
      <stop
         offset="0"
         stop-color="#ffffff"
         id="stop232" />
      <stop
         offset="1"
         stop-color="#000000"
         id="stop234" />
    </linearGradient>
    <linearGradient
       id="LinearGradient_11"
       gradientUnits="userSpaceOnUse"
       x1="0"
       y1="0"
       x2="-51.527"
       y2="-64.410004"
       gradientTransform="translate(226.61,87.059)">
      <stop
         offset="0"
         stop-color="#df9000"
         id="stop237" />
      <stop
         offset="0.730337023735046"
         stop-color="#7f5200"
         id="stop239" />
      <stop
         offset="0.990000009536743"
         stop-color="#3f2600"
         id="stop241" />
      <stop
         offset="1"
         stop-color="#3f2600"
         id="stop243" />
    </linearGradient>
  </defs>
  <g
     id="g3123"
     transform="matrix(0.64050449,0,0,0.64031522,0,25.600003)">
    <path
       id="path3125"
       d="M 20.323136,-5.1681019 C 19.23404,-5.8911696 18.919301,-7.1157199 18.919301,-8.7467875 18.919301,-10.561121 19.355606,-11.747352 20.428049,-12.362126 21.388919,-12.911924 22.726143,-12.886934 24.091676,-12.85028 24.213242,-12.848614 24.536307,-12.82529 24.742803,-12.537062 24.939306,-12.265495 24.872695,-11.968937 24.856042,-11.895631 24.769447,-11.505774 24.681187,-11.474119 24.681187,-11.150905 24.681187,-10.779374 24.736141,-10.802699 24.769447,-10.451162 24.812744,-9.9830001 24.522985,-9.5964754 23.963449,-9.583147 23.46886,-9.583147 23.11915,-9.6031397 22.847708,-9.5265011 22.699498,-9.4848498 22.644544,-9.4565268 22.644544,-9.2232792 22.644544,-8.6384939 22.774436,-8.6484903 22.807742,-8.6351618 23.047543,-8.5368646 23.480517,-8.5368646 24.438055,-8.5368646 25.578776,-8.5368646 25.966787,-8.6284976 26.134981,-8.7651141 26.249885,-8.8600792 26.381443,-9.0983251 26.381443,-10.096292 26.381443,-11.645723 26.149968,-12.387117 25.885188,-12.753649 25.655379,-13.068534 25.337309,-13.193488 24.761121,-13.258464 23.382265,-13.415073 21.936798,-13.624996 21.197411,-13.881568 20.917643,-13.978199 20.676177,-14.118148 20.468016,-14.288086 L 19.96177,-14.841216 19.785249,-14.209781 C 19.647031,-13.828255 19.543783,-13.565018 19.510477,-13.490045 19.140784,-12.731991 18.576253,-12.428769 17.895151,-12.39878 17.365591,-12.375455 16.646188,-12.53373 16.051681,-12.607036 14.627862,-12.785304 11.553746,-13.403411 10.148246,-13.991528 9.3805496,-14.341399 9.0891248,-14.722926 8.7494067,-15.416005 7.9001114,-17.123711 7.7435746,-22.080224 7.6353311,-22.869934 7.5121,-23.84291 7.5054389,-24.361053 7.5054389,-24.386044 7.5021083,-25.010814 7.5620586,-25.782197 8.0583135,-26.431959 8.3031103,-26.753507 8.6245103,-27.025074 9.0641455,-27.218337 9.5021154,-27.413265 10.035007,-27.519893 10.679472,-27.519893 L 13.074151,-27.55488 C 13.405543,-27.55488 13.858501,-27.98139 13.861831,-28.131335 13.861831,-28.151327 13.85184,-28.72445 13.846844,-29.364215 13.838517,-30.008978 13.831856,-30.740376 13.831856,-31.053595 13.831856,-31.715018 14.006711,-32.236494 14.306462,-32.656339 14.366413,-32.739642 14.572908,-33.167818 14.736106,-33.35275 14.799387,-33.424391 14.872659,-33.491033 14.959254,-33.551011 15.104134,-33.650974 15.268997,-33.717616 15.442187,-33.764266 16.213213,-33.974189 18.949276,-34.145792 20.78109,-33.424391 21.425555,-33.169484 21.975099,-32.591363 22.273185,-31.904949 L 22.323144,-31.728347 22.692837,-31.736677 C 23.638719,-31.745007 24.836058,-31.721683 25.903506,-31.600061 27.612088,-31.403466 29.037572,-31.153558 29.78362,-30.891987 30.494696,-30.638747 31.240744,-30.052296 31.592119,-28.994351 L 31.722011,-28.512861 C 32.101696,-26.52859 32.657901,-18.731454 32.413105,-16.125744 32.028424,-12.053906 31.30236,-9.6964387 31.032583,-8.8750737 30.373131,-6.8774741 29.710347,-5.6629201 28.666214,-5.0148248 27.643729,-4.380058 26.366455,-4.3750598 24.834393,-4.3750598 22.837717,-4.3750598 21.320642,-4.5050121 20.323136,-5.1681019 z M 28.001765,-6.0761017 C 28.636239,-6.4692906 29.187448,-7.2906556 29.840239,-9.2632645 30.085036,-10.011323 30.787787,-12.278824 31.162476,-16.240702 31.377297,-18.554852 30.914348,-25.44732 30.557977,-27.856436 L 30.484705,-28.274615 C 30.31318,-29.170953 29.793612,-29.562476 29.363968,-29.714087 28.767796,-29.922344 27.470539,-30.162255 25.756961,-30.35885 24.428064,-30.512127 22.847708,-30.502131 21.881843,-30.472142 21.565439,-30.462145 21.289002,-30.688729 21.242374,-31.001947 21.152448,-31.59173 20.72114,-32.104875 20.319806,-32.26315 18.794405,-32.86293 16.33811,-32.712985 15.771913,-32.559708 L 15.683653,-32.528053 15.583736,-32.346453 C 15.538773,-32.253154 15.465501,-32.11987 15.328947,-31.931606 15.194059,-31.741675 15.087481,-31.480105 15.087481,-31.053595 15.087481,-30.748707 15.092477,-30.023973 15.100803,-29.37921 15.107464,-28.741111 15.117456,-28.172986 15.117456,-28.114674 15.087481,-27.108377 13.928443,-26.305339 13.082478,-26.305339 L 10.687798,-26.270352 C 10.17156,-26.270352 9.8185196,-26.185383 9.575388,-26.077089 9.335587,-25.970462 9.1773849,-25.835511 9.0574844,-25.677236 8.8260098,-25.374014 8.7593984,-24.965831 8.7593984,-24.394374 8.7593984,-24.419365 8.762729,-23.951203 8.8792989,-23.031541 8.9892077,-22.243497 9.172389,-17.381949 9.8768045,-15.967469 10.131593,-15.44766 10.243167,-15.322706 10.652827,-15.136108 11.880142,-14.621297 14.816039,-14.019851 16.208218,-13.848247 17.019211,-13.744952 17.44719,-13.629994 17.840197,-13.648321 18.021713,-13.654985 18.144944,-13.68664 18.261514,-13.836585 L 18.379749,-14.036511 C 18.423046,-14.149803 18.50298,-14.354728 18.602897,-14.621297 19.02588,-15.875836 19.08916,-16.998757 19.08916,-17.831784 19.08916,-18.0617 19.215722,-18.273289 19.418887,-18.381582 19.828547,-18.601501 20.331463,-18.313274 20.34312,-17.826786 L 20.353112,-17.661847 C 20.401405,-17.058735 20.632879,-15.40101 21.610402,-15.062801 22.193251,-14.859542 23.490508,-14.659616 24.904335,-14.499675 25.590433,-14.423036 26.359794,-14.234772 26.902677,-13.483381 27.412254,-12.781972 27.638733,-11.702369 27.638733,-10.096292 27.638733,-9.1716315 27.56213,-8.3169454 26.932652,-7.8004684 26.353133,-7.3256428 25.45721,-7.2873235 24.438055,-7.2873235 23.640384,-7.2873235 22.862696,-7.2623327 22.328139,-7.4805859 21.588753,-7.7821418 21.387254,-8.4485637 21.387254,-9.2232792 21.387254,-10.087962 21.888504,-10.552791 22.501329,-10.727727 22.747791,-10.797701 23.024229,-10.822692 23.282348,-10.832688 L 23.452207,-10.832688 23.425562,-11.150905 23.493839,-11.60907 23.045877,-11.615734 C 22.131636,-11.60907 21.497162,-11.532431 21.054197,-11.279191 20.57626,-11.004292 20.174926,-10.412842 20.174926,-8.7467875 20.174926,-7.2156832 20.479673,-6.5659218 21.019226,-6.20772 21.653699,-5.7862082 22.781097,-5.6246009 24.834393,-5.6246009 26.473033,-5.6246009 27.343977,-5.6679183 28.001765,-6.0761017 z M 27.27237,-18.941377 C 26.811086,-19.142969 26.213249,-19.27792 25.543805,-19.301244 L 24.547964,-19.242933 C 24.134974,-19.17629 23.771941,-19.524496 23.823565,-19.937677 23.930144,-20.770705 24.383101,-22.238499 26.066704,-22.180187 27.956802,-22.116877 28.14498,-20.355857 28.151641,-19.519498 28.156636,-19.066331 27.690357,-18.759777 27.27237,-18.941377 z M 26.025072,-20.932312 C 25.708668,-20.942308 25.493846,-20.844011 25.345636,-20.649083 L 25.290681,-20.532459 25.598759,-20.547453 26.749471,-20.409171 26.726157,-20.487475 C 26.596265,-20.74738 26.379778,-20.918984 26.025072,-20.932312 z"
       style="fill:#000000;fill-opacity:1;fill-rule:evenodd;stroke:none"
       inkscape:connector-curvature="0" />
    <path
       id="path3127"
       d="M 6.45964,-29.060993 C 6.4862845,-29.144296 6.5312472,-29.225933 6.6245032,-29.33256 L 11.920109,-34.487334 C 11.975063,-34.532317 12.093299,-34.625616 12.274815,-34.652273 12.782727,-34.723913 13.157416,-34.185778 12.912619,-33.734277 L 12.822693,-33.571003 C 12.68281,-33.292772 12.591219,-32.937903 12.591219,-32.503062 12.591219,-31.873294 12.624525,-29.602461 12.62619,-29.594131 12.62619,-29.082652 12.209869,-28.689463 11.72194,-28.689463 L 9.0125217,-28.687797 C 8.4096886,-28.687797 7.9450741,-28.5895 7.5787114,-28.426226 7.5570627,-28.41623 7.4288358,-28.35292 7.330584,-28.304604 6.8343291,-28.056362 6.2831198,-28.53452 6.45964,-29.060993 z M 11.342255,-32.18318 9.037501,-29.939004 11.370565,-29.942336 C 11.363904,-30.448817 11.350582,-31.365147 11.343921,-31.99325 L 11.342255,-32.18318 z"
       style="fill:#000000;fill-opacity:1;fill-rule:evenodd;stroke:none"
       inkscape:connector-curvature="0" />
    <path
       id="path3129"
       d="M 0,-3.651992 0,-36.328324 C 0,-38.342584 1.6353097,-39.980316 3.6503044,-39.980316 L 36.318198,-39.980316 C 38.331527,-39.980316 39.968502,-38.342584 39.968502,-36.328324 L 39.968502,-3.651992 C 39.968502,-1.6360658 38.331527,0 36.318198,0 L 3.6503044,0 C 1.6353097,0 0,-1.6360658 0,-3.651992 z M 38.719538,-3.651992 38.719538,-36.328324 C 38.719538,-37.651172 37.640434,-38.730775 36.318198,-38.730775 L 3.6503044,-38.730775 C 2.326403,-38.730775 1.2489636,-37.651172 1.2489636,-36.328324 L 1.2489636,-3.651992 C 1.2489636,-2.3274785 2.326403,-1.2495411 3.6503044,-1.2495411 L 36.318198,-1.2495411 C 37.640434,-1.2495411 38.719538,-2.3274785 38.719538,-3.651992 z"
       style="fill:#000000;fill-opacity:1;fill-rule:evenodd;stroke:none"
       inkscape:connector-curvature="0" />
  </g>
</svg>
