<?xml version="1.0" encoding="UTF-8" standalone="no"?>
<!--Generator: Xara Designer (www.xara.com), SVG filter version: 3.0.2.3-->

<svg
   xmlns:dc="http://purl.org/dc/elements/1.1/"
   xmlns:cc="http://creativecommons.org/ns#"
   xmlns:rdf="http://www.w3.org/1999/02/22-rdf-syntax-ns#"
   xmlns:svg="http://www.w3.org/2000/svg"
   xmlns="http://www.w3.org/2000/svg"
   xmlns:xlink="http://www.w3.org/1999/xlink"
   xmlns:sodipodi="http://sodipodi.sourceforge.net/DTD/sodipodi-0.dtd"
   xmlns:inkscape="http://www.inkscape.org/namespaces/inkscape"
   version="1.1"
   overflow="visible"
   width="32"
   height="32"
   viewBox="0 0 25.600005 25.600001"
   id="svg2"
   inkscape:version="0.48.4 r9939"
   sodipodi:docname="linkedin.svg"
   style="fill-rule:evenodd;stroke-width:0.50099999;stroke-linejoin:bevel;overflow:visible">
  <script
     xlink:href=""
     id="script3301" />
  <script
     xlink:href=""
     id="script3299" />
  <metadata
     id="metadata322">
    <rdf:RDF>
      <cc:Work
         rdf:about="">
        <dc:format>image/svg+xml</dc:format>
        <dc:type
           rdf:resource="http://purl.org/dc/dcmitype/StillImage" />
        <dc:title></dc:title>
      </cc:Work>
    </rdf:RDF>
  </metadata>
  <sodipodi:namedview
     pagecolor="#ffffff"
     bordercolor="#666666"
     borderopacity="1"
     objecttolerance="10"
     gridtolerance="10"
     guidetolerance="10"
     inkscape:pageopacity="0"
     inkscape:pageshadow="2"
     inkscape:window-width="1858"
     inkscape:window-height="1058"
     id="namedview320"
     showgrid="false"
     inkscape:zoom="11.42689"
     inkscape:cx="18.266367"
     inkscape:cy="11.43794"
     inkscape:window-x="-8"
     inkscape:window-y="-8"
     inkscape:window-maximized="1"
     inkscape:current-layer="svg2"
     height="744.09px"
     width="512px" />
  <defs
     id="defs4">
    <marker
       id="DefaultArrow2"
       markerUnits="strokeWidth"
       viewBox="0 0 1 1"
       markerWidth="1"
       markerHeight="1"
       overflow="visible"
       orient="auto"
       style="overflow:visible">
      <!-- REF_ARROW_STRAIGHT (-2) -->
      <g
         transform="scale(0.00925926,0.00925926)"
         id="g7">
        <!-- 1/108 -->
        <path
           d="M -9,54 -9,-54 117,0 z"
           id="path9"
           inkscape:connector-curvature="0" />
      </g>
    </marker>
    <marker
       id="DefaultArrow3"
       markerUnits="strokeWidth"
       viewBox="0 0 1 1"
       markerWidth="1"
       markerHeight="1"
       overflow="visible"
       orient="auto"
       style="overflow:visible">
      <!-- REF_ARROW_ANGLED -->
      <g
         transform="scale(0.00925926,0.00925926)"
         id="g12">
        <path
           d="M -27,54 -9,0 -27,-54 135,0 z"
           id="path14"
           inkscape:connector-curvature="0" />
      </g>
    </marker>
    <marker
       id="DefaultArrow4"
       markerUnits="strokeWidth"
       viewBox="0 0 1 1"
       markerWidth="1"
       markerHeight="1"
       overflow="visible"
       orient="auto"
       style="overflow:visible">
      <!-- REF_ARROW_ROUNDED -->
      <g
         transform="scale(0.00925926,0.00925926)"
         id="g17">
        <path
           d="M -9,0 -9,-45 C -9,-51.708 2.808,-56.58 9,-54 L 117,-9 C 120.916,-7.369 126,-4.242 126,0 126,4.242 120.916,7.369 117,9 L 9,54 C 2.808,56.58 -9,51.708 -9,45 z"
           id="path19"
           inkscape:connector-curvature="0" />
      </g>
    </marker>
    <marker
       id="DefaultArrow5"
       markerUnits="strokeWidth"
       viewBox="0 0 1 1"
       markerWidth="1"
       markerHeight="1"
       overflow="visible"
       orient="auto"
       style="overflow:visible">
      <!-- REF_ARROW_SPOT -->
      <g
         transform="scale(0.00925926,0.00925926)"
         id="g22">
        <path
           d="M -54,0 C -54,29.807 -29.807,54 0,54 29.807,54 54,29.807 54,0 54,-29.807 29.807,-54 0,-54 -29.807,-54 -54,-29.807 -54,0 z"
           id="path24"
           inkscape:connector-curvature="0" />
      </g>
    </marker>
    <marker
       id="DefaultArrow6"
       markerUnits="strokeWidth"
       viewBox="0 0 1 1"
       markerWidth="1"
       markerHeight="1"
       overflow="visible"
       orient="auto"
       style="overflow:visible">
      <!-- REF_ARROW_DIAMOND -->
      <g
         transform="scale(0.00925926,0.00925926)"
         id="g27">
        <path
           d="M -63,0 0,63 63,0 0,-63 z"
           id="path29"
           inkscape:connector-curvature="0" />
      </g>
    </marker>
    <marker
       id="DefaultArrow7"
       markerUnits="strokeWidth"
       viewBox="0 0 1 1"
       markerWidth="1"
       markerHeight="1"
       overflow="visible"
       orient="auto"
       style="overflow:visible">
      <!-- REF_ARROW_FEATHER -->
      <g
         transform="scale(0.00925926,0.00925926)"
         id="g32">
        <path
           d="M 18,-54 108,-54 63,0 108,54 18,54 -36,0 z"
           id="path34"
           inkscape:connector-curvature="0" />
      </g>
    </marker>
    <marker
       id="DefaultArrow8"
       markerUnits="strokeWidth"
       viewBox="0 0 1 1"
       markerWidth="1"
       markerHeight="1"
       overflow="visible"
       orient="auto"
       style="overflow:visible">
      <!-- REF_ARROW_FEATHER2 -->
      <g
         transform="scale(0.00925926,0.00925926)"
         id="g37">
        <path
           d="M -36,0 18,-54 54,-54 18,-18 27,-18 63,-54 99,-54 63,-18 72,-18 108,-54 144,-54 90,0 144,54 108,54 72,18 63,18 99,54 63,54 27,18 18,18 54,54 18,54 z"
           id="path39"
           inkscape:connector-curvature="0" />
      </g>
    </marker>
    <marker
       id="DefaultArrow9"
       markerUnits="strokeWidth"
       viewBox="0 0 1 1"
       markerWidth="1"
       markerHeight="1"
       overflow="visible"
       orient="auto"
       style="overflow:visible">
      <!-- REF_ARROW_HOLLOWDIAMOND -->
      <g
         transform="scale(0.00925926,0.00925926)"
         id="g42">
        <path
           d="M 0,45 -45,0 0,-45 45,0 z M 0,63 -63,0 0,-63 63,0 z"
           id="path44"
           inkscape:connector-curvature="0" />
      </g>
    </marker>
    <filter
       id="StainedFilter"
       color-interpolation-filters="sRGB">
      <feBlend
         mode="multiply"
         in2="BackgroundImage"
         in="SourceGraphic"
         result="blend"
         id="feBlend47" />
      <feComposite
         in="blend"
         in2="SourceAlpha"
         operator="in"
         result="comp"
         id="feComposite49" />
    </filter>
    <filter
       id="BleachFilter"
       color-interpolation-filters="sRGB">
      <feBlend
         mode="screen"
         in2="BackgroundImage"
         in="SourceGraphic"
         result="blend"
         id="feBlend52" />
      <feComposite
         in="blend"
         in2="SourceAlpha"
         operator="in"
         result="comp"
         id="feComposite54" />
    </filter>
    <filter
       id="InvertTransparencyBitmapFilter"
       color-interpolation-filters="sRGB">
      <feComponentTransfer
         id="feComponentTransfer57">
        <feFuncR
           type="gamma"
           amplitude="1.055"
           exponent=".416666666"
           offset="-0.055"
           id="feFuncR59" />
        <feFuncG
           type="gamma"
           amplitude="1.055"
           exponent=".416666666"
           offset="-0.055"
           id="feFuncG61" />
        <feFuncB
           type="gamma"
           amplitude="1.055"
           exponent=".416666666"
           offset="-0.055"
           id="feFuncB63" />
      </feComponentTransfer>
      <feComponentTransfer
         id="feComponentTransfer65">
        <feFuncR
           type="linear"
           slope="-1"
           intercept="1"
           id="feFuncR67" />
        <feFuncG
           type="linear"
           slope="-1"
           intercept="1"
           id="feFuncG69" />
        <feFuncB
           type="linear"
           slope="-1"
           intercept="1"
           id="feFuncB71" />
        <feFuncA
           type="linear"
           slope="1"
           intercept="0"
           id="feFuncA73" />
      </feComponentTransfer>
      <feComponentTransfer
         id="feComponentTransfer75">
        <feFuncR
           type="gamma"
           amplitude="1"
           exponent="2.4"
           offset="0"
           id="feFuncR77" />
        <feFuncG
           type="gamma"
           amplitude="1"
           exponent="2.4"
           offset="0"
           id="feFuncG79" />
        <feFuncB
           type="gamma"
           amplitude="1"
           exponent="2.4"
           offset="0"
           id="feFuncB81" />
      </feComponentTransfer>
    </filter>
    <radialGradient
       id="RadialGradient"
       gradientUnits="userSpaceOnUse"
       cx="0"
       cy="0"
       r="237.42799"
       gradientTransform="matrix(0,-1,0.886054,0,172.174,122.358)">
      <stop
         offset="0"
         stop-color="#473600"
         id="stop84" />
      <stop
         offset="0.792135000228882"
         stop-color="#3d2f00"
         id="stop86" />
      <stop
         offset="0.990000009536743"
         stop-color="#3a2c00"
         id="stop88" />
      <stop
         offset="1"
         stop-color="#3a2c00"
         id="stop90" />
    </radialGradient>
    <radialGradient
       id="RadialGradient_1"
       gradientUnits="userSpaceOnUse"
       cx="0"
       cy="0"
       r="237.42799"
       gradientTransform="matrix(0,-1,0.886054,0,170.916,119.88)">
      <stop
         offset="0"
         stop-color="#553e00"
         id="stop93" />
      <stop
         offset="0.792135000228882"
         stop-color="#403200"
         id="stop95" />
      <stop
         offset="0.990000009536743"
         stop-color="#3b2b00"
         id="stop97" />
      <stop
         offset="1"
         stop-color="#3b2b00"
         id="stop99" />
    </radialGradient>
    <radialGradient
       id="RadialGradient_2"
       gradientUnits="userSpaceOnUse"
       cx="0"
       cy="0"
       r="237.42799"
       gradientTransform="matrix(0,-1,0.886054,0,169.66,117.403)">
      <stop
         offset="0"
         stop-color="#634700"
         id="stop102" />
      <stop
         offset="0.792135000228882"
         stop-color="#443400"
         id="stop104" />
      <stop
         offset="0.990000009536743"
         stop-color="#3c2a00"
         id="stop106" />
      <stop
         offset="1"
         stop-color="#3c2a00"
         id="stop108" />
    </radialGradient>
    <radialGradient
       id="RadialGradient_3"
       gradientUnits="userSpaceOnUse"
       cx="0"
       cy="0"
       r="237.42799"
       gradientTransform="matrix(0,-1,0.886054,0,168.403,114.925)">
      <stop
         offset="0"
         stop-color="#724f00"
         id="stop111" />
      <stop
         offset="0.792135000228882"
         stop-color="#473600"
         id="stop113" />
      <stop
         offset="0.990000009536743"
         stop-color="#3c2900"
         id="stop115" />
      <stop
         offset="1"
         stop-color="#3c2900"
         id="stop117" />
    </radialGradient>
    <radialGradient
       id="RadialGradient_4"
       gradientUnits="userSpaceOnUse"
       cx="0"
       cy="0"
       r="237.42799"
       gradientTransform="matrix(0,-1,0.886054,0,167.146,112.448)">
      <stop
         offset="0"
         stop-color="#805800"
         id="stop120" />
      <stop
         offset="0.792135000228882"
         stop-color="#4b3800"
         id="stop122" />
      <stop
         offset="0.990000009536743"
         stop-color="#3d2800"
         id="stop124" />
      <stop
         offset="1"
         stop-color="#3d2800"
         id="stop126" />
    </radialGradient>
    <radialGradient
       id="RadialGradient_5"
       gradientUnits="userSpaceOnUse"
       cx="0"
       cy="0"
       r="237.42799"
       gradientTransform="matrix(0,-1,0.886054,0,165.889,109.97)">
      <stop
         offset="0"
         stop-color="#8e6000"
         id="stop129" />
      <stop
         offset="0.792135000228882"
         stop-color="#4e3b00"
         id="stop131" />
      <stop
         offset="0.990000009536743"
         stop-color="#3e2700"
         id="stop133" />
      <stop
         offset="1"
         stop-color="#3e2700"
         id="stop135" />
    </radialGradient>
    <radialGradient
       id="RadialGradient_6"
       gradientUnits="userSpaceOnUse"
       cx="0"
       cy="0"
       r="237.42799"
       gradientTransform="matrix(0,-1,0.886054,0,164.632,107.493)">
      <stop
         offset="0"
         stop-color="#9c6900"
         id="stop138" />
      <stop
         offset="0.792135000228882"
         stop-color="#523d00"
         id="stop140" />
      <stop
         offset="0.990000009536743"
         stop-color="#3f2600"
         id="stop142" />
      <stop
         offset="1"
         stop-color="#3f2600"
         id="stop144" />
    </radialGradient>
    <linearGradient
       id="LinearGradient"
       gradientUnits="userSpaceOnUse"
       x1="0"
       y1="0"
       x2="42.75"
       y2="36.75"
       gradientTransform="translate(218.601,165.399)">
      <stop
         offset="0"
         stop-color="#5c5c5c"
         id="stop147" />
      <stop
         offset="1"
         stop-color="#000000"
         id="stop149" />
    </linearGradient>
    <linearGradient
       id="LinearGradient_1"
       gradientUnits="userSpaceOnUse"
       x1="0"
       y1="0"
       x2="-9.6719999"
       y2="-141.858"
       gradientTransform="translate(181.122,157.792)">
      <stop
         offset="0"
         stop-color="#ffffff"
         id="stop152" />
      <stop
         offset="1"
         stop-color="#cfd1d2"
         id="stop154" />
    </linearGradient>
    <linearGradient
       id="LinearGradient_2"
       gradientUnits="userSpaceOnUse"
       x1="0"
       y1="0"
       x2="69.75"
       y2="-189.75"
       gradientTransform="translate(259.851,172.899)">
      <stop
         offset="0"
         stop-color="#b5b5b5"
         id="stop157" />
      <stop
         offset="1"
         stop-color="#000000"
         id="stop159" />
    </linearGradient>
    <linearGradient
       id="LinearGradient_3"
       gradientUnits="userSpaceOnUse"
       x1="0"
       y1="0"
       x2="-51.527"
       y2="-64.410004"
       gradientTransform="translate(204.11,87.059)">
      <stop
         offset="0"
         stop-color="#df9000"
         id="stop162" />
      <stop
         offset="0.730337023735046"
         stop-color="#7f5200"
         id="stop164" />
      <stop
         offset="0.990000009536743"
         stop-color="#3f2600"
         id="stop166" />
      <stop
         offset="1"
         stop-color="#3f2600"
         id="stop168" />
    </linearGradient>
    <linearGradient
       id="LinearGradient_4"
       gradientUnits="userSpaceOnUse"
       x1="0"
       y1="0"
       x2="19.041"
       y2="85.190002"
       gradientTransform="translate(199.945,96.333)">
      <stop
         offset="0"
         stop-color="#ba7d00"
         id="stop171" />
      <stop
         offset="0.792135000228882"
         stop-color="#7f5200"
         id="stop173" />
      <stop
         offset="0.990000009536743"
         stop-color="#3f2600"
         id="stop175" />
      <stop
         offset="1"
         stop-color="#3f2600"
         id="stop177" />
    </linearGradient>
    <linearGradient
       id="LinearGradient_5"
       gradientUnits="userSpaceOnUse"
       x1="0"
       y1="0"
       x2="-1.007"
       y2="-63.535999"
       gradientTransform="translate(129.134,111.014)">
      <stop
         offset="0"
         stop-color="#df9000"
         id="stop180" />
      <stop
         offset="0.792135000228882"
         stop-color="#7f5200"
         id="stop182" />
      <stop
         offset="0.990000009536743"
         stop-color="#3f2600"
         id="stop184" />
      <stop
         offset="1"
         stop-color="#3f2600"
         id="stop186" />
    </linearGradient>
    <linearGradient
       id="LinearGradient_6"
       gradientUnits="userSpaceOnUse"
       x1="0"
       y1="0"
       x2="15.098"
       y2="58.375"
       gradientTransform="translate(129.286,104.867)">
      <stop
         offset="0"
         stop-color="#df9000"
         id="stop189" />
      <stop
         offset="0.792135000228882"
         stop-color="#7f5200"
         id="stop191" />
      <stop
         offset="0.990000009536743"
         stop-color="#3f2600"
         id="stop193" />
      <stop
         offset="1"
         stop-color="#3f2600"
         id="stop195" />
    </linearGradient>
    <radialGradient
       id="RadialGradient_7"
       gradientUnits="userSpaceOnUse"
       cx="0"
       cy="0"
       r="38.716999"
       gradientTransform="matrix(0.69735527,-0.71672563,1.2319152,1.1986212,183.351,196.899)">
      <stop
         offset="0"
         stop-color="#6b4c29"
         id="stop198" />
      <stop
         offset="1"
         stop-color="#a57348"
         id="stop200" />
    </radialGradient>
    <radialGradient
       id="RadialGradient_8"
       gradientUnits="userSpaceOnUse"
       cx="0"
       cy="0"
       r="120.999"
       gradientTransform="matrix(0,-1,0.973942,0,134.346,314.993)">
      <stop
         offset="0"
         stop-color="#e0bf9e"
         id="stop203" />
      <stop
         offset="1.68539006263018E-02"
         stop-color="#e0bf9e"
         id="stop205" />
      <stop
         offset="0.202246993780136"
         stop-color="#e6b891"
         id="stop207" />
      <stop
         offset="1"
         stop-color="#7b5d39"
         id="stop209" />
    </radialGradient>
    <radialGradient
       id="RadialGradient_9"
       gradientUnits="userSpaceOnUse"
       cx="0"
       cy="0"
       r="87.054001"
       gradientTransform="matrix(-0.01429027,-0.99989789,1.2061368,-0.01723778,146.601,370.899)">
      <stop
         offset="0"
         stop-color="#9a9a9a"
         id="stop212" />
      <stop
         offset="1"
         stop-color="#313131"
         id="stop214" />
    </radialGradient>
    <linearGradient
       id="LinearGradient_7"
       gradientUnits="userSpaceOnUse"
       x1="0"
       y1="0"
       x2="-54"
       y2="-87"
       gradientTransform="translate(213.351,257.649)">
      <stop
         offset="0"
         stop-color="#484848"
         id="stop217" />
      <stop
         offset="1"
         stop-color="#000000"
         id="stop219" />
    </linearGradient>
    <linearGradient
       id="LinearGradient_8"
       gradientUnits="userSpaceOnUse"
       x1="0"
       y1="0"
       x2="10.5"
       y2="-85.5"
       gradientTransform="translate(133.101,343.149)">
      <stop
         offset="0"
         stop-color="#8d8d8d"
         id="stop222" />
      <stop
         offset="1"
         stop-color="#000000"
         id="stop224" />
    </linearGradient>
    <linearGradient
       id="LinearGradient_9"
       gradientUnits="userSpaceOnUse"
       x1="0"
       y1="0"
       x2="3.5999999"
       y2="-129"
       gradientTransform="translate(239.24,380.259)">
      <stop
         offset="0"
         stop-color="#ffffff"
         id="stop227" />
      <stop
         offset="1"
         stop-color="#000000"
         id="stop229" />
    </linearGradient>
    <linearGradient
       id="LinearGradient_10"
       gradientUnits="userSpaceOnUse"
       x1="0"
       y1="0"
       x2="108"
       y2="-33.75"
       gradientTransform="translate(115.007,352.336)">
      <stop
         offset="0"
         stop-color="#ffffff"
         id="stop232" />
      <stop
         offset="1"
         stop-color="#000000"
         id="stop234" />
    </linearGradient>
    <linearGradient
       id="LinearGradient_11"
       gradientUnits="userSpaceOnUse"
       x1="0"
       y1="0"
       x2="-51.527"
       y2="-64.410004"
       gradientTransform="translate(226.61,87.059)">
      <stop
         offset="0"
         stop-color="#df9000"
         id="stop237" />
      <stop
         offset="0.730337023735046"
         stop-color="#7f5200"
         id="stop239" />
      <stop
         offset="0.990000009536743"
         stop-color="#3f2600"
         id="stop241" />
      <stop
         offset="1"
         stop-color="#3f2600"
         id="stop243" />
    </linearGradient>
  </defs>
  <g
     id="g3299"
     transform="matrix(0.64050449,0,0,0.64031522,0,25.600003)">
    <path
       id="path3301"
       d="M 0,-3.651992 0,-36.328324 C 0,-38.342584 1.6353097,-39.980316 3.6503044,-39.980316 L 36.318198,-39.980316 C 38.331527,-39.980316 39.968502,-38.342584 39.968502,-36.328324 L 39.968502,-3.651992 C 39.968502,-1.6360658 38.331527,0 36.318198,0 L 3.6503044,0 C 1.6353097,0 0,-1.6360658 0,-3.651992 z M 38.719538,-3.651992 38.719538,-36.328324 C 38.719538,-37.651172 37.640434,-38.730775 36.318198,-38.730775 L 3.6503044,-38.730775 C 2.326403,-38.730775 1.2489636,-37.651172 1.2489636,-36.328324 L 1.2489636,-3.651992 C 1.2489636,-2.3274785 2.326403,-1.2495411 3.6503044,-1.2495411 L 36.318198,-1.2495411 C 37.640434,-1.2495411 38.719538,-2.3274785 38.719538,-3.651992 z"
       style="fill:#000000;fill-opacity:1;fill-rule:evenodd;stroke:none"
       inkscape:connector-curvature="0" />
    <path
       id="path3303"
       d="M 15.81188,-5.1731 C 14.521284,-5.4963147 13.508791,-6.2910228 12.964243,-7.3772905 12.652834,-8.000395 12.389719,-8.7817747 12.389719,-9.5948094 L 12.403042,-9.7297598 12.684475,-11.027616 C 12.712785,-11.177561 12.752751,-11.329172 12.804375,-11.480783 12.108286,-11.229209 11.442172,-11.120916 10.756075,-11.154237 L 10.334758,-11.192556 10.006697,-11.227543 C 9.1673932,-11.354163 8.3747176,-11.720695 7.9883715,-12.47875 L 7.9367477,-12.615367 7.7652233,-13.305113 C 7.7419093,-13.398412 7.7402441,-13.493378 7.7585622,-13.586677 L 7.8718016,-14.154801 7.8884544,-14.219777 C 8.1149331,-14.956174 8.5678906,-15.665913 9.2689756,-16.285685 9.1057776,-16.267359 8.9409144,-16.249032 8.7777165,-16.232372 8.7144357,-16.225707 8.6511549,-16.227373 8.5895393,-16.239036 L 8.0316689,-16.345663 C 6.8543125,-16.53726 5.9900297,-17.077061 5.4271634,-18.098353 4.8726235,-19.11298 4.8776194,-20.142602 5.2806183,-21.11891 5.6752908,-22.156862 6.3763757,-23.029875 7.3905342,-23.573009 L 7.7802109,-23.754609 C 8.9259269,-24.376047 10.109944,-24.572642 11.405536,-24.259423 L 11.493796,-24.224436 11.886803,-24.067827 11.458825,-24.446022 C 11.410532,-24.489339 11.3689,-24.539321 11.335594,-24.592634 L 10.982554,-25.165757 C 10.394708,-26.222036 9.9750563,-27.32663 10.136589,-28.544516 L 10.188213,-28.941037 C 10.353076,-29.804054 10.816025,-30.460479 11.522106,-30.900318 L 11.890134,-31.096912 12.056662,-31.191877 C 12.581227,-31.435121 13.197383,-31.420127 13.733604,-31.263518 L 13.948426,-31.188545 14.424698,-31.055261 C 15.448848,-30.71372 16.334779,-30.075621 17.064174,-29.062659 L 17.032534,-30.457147 17.034199,-30.530454 17.089153,-31.131899 17.105806,-31.22853 C 17.455516,-32.639679 18.419716,-33.672633 19.598738,-34.340721 20.661189,-34.938834 21.848537,-35.125433 23.00591,-34.833873 L 23.427227,-34.702255 23.931809,-34.555642 C 25.075859,-34.165785 25.948469,-33.446049 26.508004,-32.374776 26.841061,-31.686696 27.042561,-30.863664 27.042561,-29.988986 L 27.0359,-29.902351 26.949305,-29.26092 27.289023,-29.45918 C 28.209926,-29.942336 29.115841,-30.05896 30.058392,-29.910681 31.200777,-29.720751 31.983461,-28.941037 32.35815,-27.87976 L 32.379799,-27.79979 32.582964,-26.850139 C 32.597951,-26.776832 32.601282,-26.70186 32.59129,-26.626887 L 32.488042,-25.887159 32.47139,-25.808854 C 32.120014,-24.509332 31.403942,-23.459717 30.288201,-22.625024 L 30.146652,-22.528393 30.797778,-22.545053 30.874381,-22.543387 31.442244,-22.490073 31.587123,-22.458418 C 32.41477,-22.178521 33.252408,-21.690367 33.82027,-20.874 L 33.998456,-20.582441 34.19829,-20.33753 C 34.726185,-19.614463 34.970982,-18.713127 34.970982,-17.766808 L 34.962656,-17.670177 34.792797,-16.53726 34.78114,-16.475616 C 34.49138,-15.332702 33.846915,-14.411374 32.916021,-13.836585 L 32.523013,-13.624996 C 31.515516,-13.060203 30.461391,-12.885268 29.333993,-13.156834 L 28.897688,-13.285121 28.611259,-13.366757 C 28.541317,-13.388416 28.474706,-13.411741 28.40976,-13.435066 28.6429,-12.803631 28.751143,-12.130545 28.662883,-11.377488 28.536321,-10.421173 28.163298,-9.5281672 27.345643,-9.0600058 L 27.074201,-8.9350517 C 26.45305,-8.550193 25.75363,-8.5751839 25.214078,-8.6384939 L 25.149132,-8.6501563 C 23.731975,-8.9667067 22.649539,-9.9230222 21.885174,-11.330838 L 21.886839,-9.0833306 21.883508,-9.0216865 21.830219,-8.4552279 C 21.823558,-8.396916 21.810236,-8.336938 21.788587,-8.2819582 21.398911,-7.2873235 20.751115,-6.3943182 19.783584,-5.8278596 L 19.402234,-5.6329312 19.360602,-5.6096064 19.403899,-5.6329312 C 19.400569,-5.6312651 19.398903,-5.629599 19.358937,-5.6096064 19.382251,-5.6212688 19.368928,-5.6129385 19.353941,-5.6046082 19.26235,-5.5562926 19.172425,-5.5096431 19.080834,-5.4663257 18.008391,-4.958179 16.879327,-4.8765423 15.81188,-5.1731 z M 19.080834,-5.4663257 19.35061,-5.6046082 19.080834,-5.4663257 z M 19.353941,-5.6046082 19.355606,-5.6079403 19.35061,-5.6046082 19.353941,-5.6046082 z M 19.355606,-5.6079403 19.358937,-5.6096064 19.360602,-5.6096064 19.355606,-5.6079403 z M 18.776087,-6.754186 18.829376,-6.7808429 C 19.55544,-7.1040575 20.089997,-7.6805125 20.448033,-8.4219068 L 20.557942,-8.6751472 20.601239,-9.1133196 20.601239,-11.30918 20.411397,-12.910258 C 20.296492,-13.983198 20.204901,-15.017818 20.131629,-16.01745 L 20.114976,-16.23737 C 20.07834,-16.23737 20.041703,-16.23737 20.005067,-16.23737 19.43887,-16.23737 18.915971,-16.348995 18.44636,-16.565583 17.915135,-15.977465 17.219046,-15.091124 16.875997,-14.722926 L 14.621201,-12.040578 C 14.259834,-11.675712 14.033356,-11.220879 13.941765,-10.766046 L 13.67865,-9.5448277 13.70696,-9.1782957 C 13.770241,-8.7601159 13.920116,-8.3386041 14.114955,-7.9520794 14.476321,-7.2290116 15.165749,-6.6608869 16.139941,-6.4176429 17.002558,-6.1793971 17.905143,-6.267698 18.776087,-6.754186 z M 26.413083,-10.039646 26.534649,-10.097958 C 26.969288,-10.252901 27.27237,-10.664417 27.38561,-11.539095 27.487192,-12.377121 27.242395,-13.105187 26.706173,-13.973201 L 26.42474,-14.466354 24.84272,-16.134074 23.392256,-17.408606 22.97427,-17.75348 C 22.937634,-17.708496 22.899332,-17.663513 22.861031,-17.620195 L 22.577932,-17.34363 22.329805,-17.112048 C 22.124975,-16.937113 21.910153,-16.787168 21.68534,-16.662214 L 22.286507,-13.673311 23.00258,-11.968937 23.244046,-11.557422 C 23.755289,-10.762714 24.368113,-10.256233 25.070864,-10.007991 L 25.382272,-9.9146919 C 25.845221,-9.8597121 26.164956,-9.8847029 26.413083,-10.039646 z M 12.759413,-12.848614 13.09247,-13.00689 13.485477,-13.27679 15.184067,-14.809561 15.665335,-15.311043 C 15.75193,-15.402676 15.84019,-15.497641 15.930115,-15.594273 L 17.017546,-16.890463 16.80439,-17.556885 12.764408,-16.73552 12.622859,-16.690537 C 12.348087,-16.592239 12.000043,-16.423968 11.615362,-16.242368 L 11.169066,-16.035777 10.747749,-15.794199 C 9.9484118,-15.291051 9.470475,-14.697935 9.2206823,-14.123146 L 9.1224305,-13.85991 9.0474927,-13.476717 9.160732,-13.018552 9.195703,-12.961906 C 9.3772191,-12.728658 9.7702263,-12.520402 10.494625,-12.467088 11.220689,-12.373789 11.918444,-12.475418 12.759413,-12.848614 z M 31.931837,-14.764577 C 32.631257,-15.09279 33.14583,-15.657583 33.427263,-16.440628 L 33.528845,-16.773839 33.683717,-17.806793 33.673725,-18.073362 C 33.620436,-18.773105 33.385631,-19.351226 33.004281,-19.769406 L 32.91269,-19.901024 C 32.64791,-20.394176 32.228258,-20.757376 31.71535,-21.015615 L 31.230752,-21.217207 30.791117,-21.258859 28.582949,-21.207211 23.660367,-20.769039 C 23.70533,-20.532459 23.726979,-20.287549 23.726979,-20.034309 23.726979,-19.66611 23.682016,-19.301244 23.583764,-18.951373 L 24.189928,-18.418235 27.938484,-15.312709 28.010091,-15.241069 C 28.319834,-14.889531 28.654557,-14.671278 29.210762,-14.532996 L 29.267382,-14.516335 C 30.22159,-14.18479 31.050902,-14.273091 31.931837,-14.764577 z M 21.930136,-18.060034 C 22.50799,-18.558184 22.762779,-19.249597 22.762779,-20.034309 22.762779,-20.799028 22.521313,-21.413802 21.920145,-22.016914 21.475514,-22.466748 20.767768,-22.768304 20.005067,-22.768304 19.297321,-22.768304 18.696153,-22.540055 18.221547,-22.170191 L 18.03337,-22.008583 17.848523,-21.795328 C 17.410553,-21.250529 17.199062,-20.689068 17.199062,-20.034309 17.199062,-19.267923 17.492152,-18.55985 18.050023,-18.038375 18.546278,-17.493575 19.200734,-17.202015 20.005067,-17.202015 20.742788,-17.202015 21.362274,-17.483579 21.930136,-18.060034 z M 8.7360844,-17.520232 9.7019496,-17.63519 C 11.825188,-17.915087 13.97174,-18.353259 16.34144,-18.821421 L 16.423039,-18.838081 C 16.321457,-19.146301 16.259841,-19.469516 16.241523,-19.799395 L 12.48131,-22.455086 11.069148,-23.013214 10.747749,-23.078191 C 9.9250978,-23.201479 9.172389,-23.046536 8.3913704,-22.625024 L 8.3264243,-22.595035 C 7.4338316,-22.231835 6.8193415,-21.550418 6.4746276,-20.644085 6.1998556,-19.975997 6.2048514,-19.356224 6.5545612,-18.716459 6.8992752,-18.091689 7.3938648,-17.751814 8.2564824,-17.613531 L 8.7360844,-17.520232 z M 17.365591,-22.708326 C 17.420545,-22.759974 17.47883,-22.809956 17.537115,-22.858271 L 17.357264,-24.944172 17.080827,-26.255357 C 16.975914,-26.793493 16.697811,-27.253324 16.331449,-27.839775 15.585401,-29.100979 14.684482,-29.705756 13.613704,-29.949 L 13.517117,-29.978989 C 13.084143,-30.152259 12.702793,-30.103944 12.529603,-29.985654 L 12.438013,-29.934006 C 11.816861,-29.645778 11.468817,-29.179283 11.408867,-28.371247 11.302288,-27.568208 11.565403,-26.760172 12.093299,-25.817185 L 12.379728,-25.349023 16.607886,-21.638719 C 16.794398,-22.013582 17.049186,-22.366785 17.365591,-22.708326 z M 23.157451,-22.021912 27.635402,-22.803292 28.040067,-22.903255 C 28.446396,-23.013214 28.774457,-23.138169 29.097522,-23.366418 30.110016,-24.004517 30.744489,-24.772568 31.095864,-25.723886 L 31.219095,-26.112076 31.30236,-26.691863 31.134166,-27.473243 31.042575,-27.696494 C 30.784456,-28.239628 30.378127,-28.552847 29.853562,-28.639481 29.0842,-28.762769 28.373124,-28.646146 27.568791,-28.136333 L 27.045891,-27.823115 24.732811,-25.07579 22.724477,-22.57171 C 22.891006,-22.393442 23.03422,-22.210176 23.157451,-22.021912 z M 21.622059,-23.37808 23.743632,-25.897155 24.81774,-27.236663 25.034227,-27.594865 C 25.184103,-27.858102 25.318991,-28.134667 25.440557,-28.427892 L 25.592098,-28.82608 25.75363,-30.022307 25.726986,-30.488802 C 25.672031,-30.978622 25.537143,-31.430123 25.350631,-31.816648 L 25.182438,-32.099877 C 24.736141,-32.769631 24.065032,-33.22613 23.124146,-33.452714 L 23.049208,-33.476038 C 22.119979,-33.822578 21.139126,-33.730945 20.229881,-33.219466 19.402234,-32.751305 18.774422,-32.098211 18.464679,-31.278512 L 18.363096,-30.951965 18.318134,-30.448817 18.371423,-28.101346 18.627876,-25.150763 18.954272,-23.594668 C 19.283999,-23.682968 19.633709,-23.73295 20.005067,-23.73295 20.572929,-23.73295 21.1308,-23.604664 21.622059,-23.37808 z"
       style="fill:#000000;fill-opacity:1;fill-rule:evenodd;stroke:none"
       inkscape:connector-curvature="0" />
  </g>
</svg>
