<?xml version="1.0" encoding="UTF-8" standalone="no"?>
<!--Generator: Xara Designer (www.xara.com), SVG filter version: 3.0.2.3-->

<svg
   xmlns:dc="http://purl.org/dc/elements/1.1/"
   xmlns:cc="http://creativecommons.org/ns#"
   xmlns:rdf="http://www.w3.org/1999/02/22-rdf-syntax-ns#"
   xmlns:svg="http://www.w3.org/2000/svg"
   xmlns="http://www.w3.org/2000/svg"
   xmlns:xlink="http://www.w3.org/1999/xlink"
   xmlns:sodipodi="http://sodipodi.sourceforge.net/DTD/sodipodi-0.dtd"
   xmlns:inkscape="http://www.inkscape.org/namespaces/inkscape"
   version="1.1"
   overflow="visible"
   width="32"
   height="32"
   viewBox="0 0 25.600005 25.600001"
   id="svg2"
   inkscape:version="0.48.4 r9939"
   sodipodi:docname="art deviant deviantart portfolio.svg"
   style="fill-rule:evenodd;stroke-width:0.50099999;stroke-linejoin:bevel;overflow:visible">
  <script
     xlink:href=""
     id="script3301" />
  <script
     xlink:href=""
     id="script3299" />
  <metadata
     id="metadata322">
    <rdf:RDF>
      <cc:Work
         rdf:about="">
        <dc:format>image/svg+xml</dc:format>
        <dc:type
           rdf:resource="http://purl.org/dc/dcmitype/StillImage" />
        <dc:title></dc:title>
      </cc:Work>
    </rdf:RDF>
  </metadata>
  <sodipodi:namedview
     pagecolor="#ffffff"
     bordercolor="#666666"
     borderopacity="1"
     objecttolerance="10"
     gridtolerance="10"
     guidetolerance="10"
     inkscape:pageopacity="0"
     inkscape:pageshadow="2"
     inkscape:window-width="1858"
     inkscape:window-height="1058"
     id="namedview320"
     showgrid="false"
     inkscape:zoom="11.42689"
     inkscape:cx="18.266367"
     inkscape:cy="11.43794"
     inkscape:window-x="-8"
     inkscape:window-y="-8"
     inkscape:window-maximized="1"
     inkscape:current-layer="svg2"
     height="744.09px"
     width="512px" />
  <defs
     id="defs4">
    <marker
       id="DefaultArrow2"
       markerUnits="strokeWidth"
       viewBox="0 0 1 1"
       markerWidth="1"
       markerHeight="1"
       overflow="visible"
       orient="auto"
       style="overflow:visible">
      <!-- REF_ARROW_STRAIGHT (-2) -->
      <g
         transform="scale(0.00925926,0.00925926)"
         id="g7">
        <!-- 1/108 -->
        <path
           d="M -9,54 -9,-54 117,0 z"
           id="path9"
           inkscape:connector-curvature="0" />
      </g>
    </marker>
    <marker
       id="DefaultArrow3"
       markerUnits="strokeWidth"
       viewBox="0 0 1 1"
       markerWidth="1"
       markerHeight="1"
       overflow="visible"
       orient="auto"
       style="overflow:visible">
      <!-- REF_ARROW_ANGLED -->
      <g
         transform="scale(0.00925926,0.00925926)"
         id="g12">
        <path
           d="M -27,54 -9,0 -27,-54 135,0 z"
           id="path14"
           inkscape:connector-curvature="0" />
      </g>
    </marker>
    <marker
       id="DefaultArrow4"
       markerUnits="strokeWidth"
       viewBox="0 0 1 1"
       markerWidth="1"
       markerHeight="1"
       overflow="visible"
       orient="auto"
       style="overflow:visible">
      <!-- REF_ARROW_ROUNDED -->
      <g
         transform="scale(0.00925926,0.00925926)"
         id="g17">
        <path
           d="M -9,0 -9,-45 C -9,-51.708 2.808,-56.58 9,-54 L 117,-9 C 120.916,-7.369 126,-4.242 126,0 126,4.242 120.916,7.369 117,9 L 9,54 C 2.808,56.58 -9,51.708 -9,45 z"
           id="path19"
           inkscape:connector-curvature="0" />
      </g>
    </marker>
    <marker
       id="DefaultArrow5"
       markerUnits="strokeWidth"
       viewBox="0 0 1 1"
       markerWidth="1"
       markerHeight="1"
       overflow="visible"
       orient="auto"
       style="overflow:visible">
      <!-- REF_ARROW_SPOT -->
      <g
         transform="scale(0.00925926,0.00925926)"
         id="g22">
        <path
           d="M -54,0 C -54,29.807 -29.807,54 0,54 29.807,54 54,29.807 54,0 54,-29.807 29.807,-54 0,-54 -29.807,-54 -54,-29.807 -54,0 z"
           id="path24"
           inkscape:connector-curvature="0" />
      </g>
    </marker>
    <marker
       id="DefaultArrow6"
       markerUnits="strokeWidth"
       viewBox="0 0 1 1"
       markerWidth="1"
       markerHeight="1"
       overflow="visible"
       orient="auto"
       style="overflow:visible">
      <!-- REF_ARROW_DIAMOND -->
      <g
         transform="scale(0.00925926,0.00925926)"
         id="g27">
        <path
           d="M -63,0 0,63 63,0 0,-63 z"
           id="path29"
           inkscape:connector-curvature="0" />
      </g>
    </marker>
    <marker
       id="DefaultArrow7"
       markerUnits="strokeWidth"
       viewBox="0 0 1 1"
       markerWidth="1"
       markerHeight="1"
       overflow="visible"
       orient="auto"
       style="overflow:visible">
      <!-- REF_ARROW_FEATHER -->
      <g
         transform="scale(0.00925926,0.00925926)"
         id="g32">
        <path
           d="M 18,-54 108,-54 63,0 108,54 18,54 -36,0 z"
           id="path34"
           inkscape:connector-curvature="0" />
      </g>
    </marker>
    <marker
       id="DefaultArrow8"
       markerUnits="strokeWidth"
       viewBox="0 0 1 1"
       markerWidth="1"
       markerHeight="1"
       overflow="visible"
       orient="auto"
       style="overflow:visible">
      <!-- REF_ARROW_FEATHER2 -->
      <g
         transform="scale(0.00925926,0.00925926)"
         id="g37">
        <path
           d="M -36,0 18,-54 54,-54 18,-18 27,-18 63,-54 99,-54 63,-18 72,-18 108,-54 144,-54 90,0 144,54 108,54 72,18 63,18 99,54 63,54 27,18 18,18 54,54 18,54 z"
           id="path39"
           inkscape:connector-curvature="0" />
      </g>
    </marker>
    <marker
       id="DefaultArrow9"
       markerUnits="strokeWidth"
       viewBox="0 0 1 1"
       markerWidth="1"
       markerHeight="1"
       overflow="visible"
       orient="auto"
       style="overflow:visible">
      <!-- REF_ARROW_HOLLOWDIAMOND -->
      <g
         transform="scale(0.00925926,0.00925926)"
         id="g42">
        <path
           d="M 0,45 -45,0 0,-45 45,0 z M 0,63 -63,0 0,-63 63,0 z"
           id="path44"
           inkscape:connector-curvature="0" />
      </g>
    </marker>
    <filter
       id="StainedFilter"
       color-interpolation-filters="sRGB">
      <feBlend
         mode="multiply"
         in2="BackgroundImage"
         in="SourceGraphic"
         result="blend"
         id="feBlend47" />
      <feComposite
         in="blend"
         in2="SourceAlpha"
         operator="in"
         result="comp"
         id="feComposite49" />
    </filter>
    <filter
       id="BleachFilter"
       color-interpolation-filters="sRGB">
      <feBlend
         mode="screen"
         in2="BackgroundImage"
         in="SourceGraphic"
         result="blend"
         id="feBlend52" />
      <feComposite
         in="blend"
         in2="SourceAlpha"
         operator="in"
         result="comp"
         id="feComposite54" />
    </filter>
    <filter
       id="InvertTransparencyBitmapFilter"
       color-interpolation-filters="sRGB">
      <feComponentTransfer
         id="feComponentTransfer57">
        <feFuncR
           type="gamma"
           amplitude="1.055"
           exponent=".416666666"
           offset="-0.055"
           id="feFuncR59" />
        <feFuncG
           type="gamma"
           amplitude="1.055"
           exponent=".416666666"
           offset="-0.055"
           id="feFuncG61" />
        <feFuncB
           type="gamma"
           amplitude="1.055"
           exponent=".416666666"
           offset="-0.055"
           id="feFuncB63" />
      </feComponentTransfer>
      <feComponentTransfer
         id="feComponentTransfer65">
        <feFuncR
           type="linear"
           slope="-1"
           intercept="1"
           id="feFuncR67" />
        <feFuncG
           type="linear"
           slope="-1"
           intercept="1"
           id="feFuncG69" />
        <feFuncB
           type="linear"
           slope="-1"
           intercept="1"
           id="feFuncB71" />
        <feFuncA
           type="linear"
           slope="1"
           intercept="0"
           id="feFuncA73" />
      </feComponentTransfer>
      <feComponentTransfer
         id="feComponentTransfer75">
        <feFuncR
           type="gamma"
           amplitude="1"
           exponent="2.4"
           offset="0"
           id="feFuncR77" />
        <feFuncG
           type="gamma"
           amplitude="1"
           exponent="2.4"
           offset="0"
           id="feFuncG79" />
        <feFuncB
           type="gamma"
           amplitude="1"
           exponent="2.4"
           offset="0"
           id="feFuncB81" />
      </feComponentTransfer>
    </filter>
    <radialGradient
       id="RadialGradient"
       gradientUnits="userSpaceOnUse"
       cx="0"
       cy="0"
       r="237.42799"
       gradientTransform="matrix(0,-1,0.886054,0,172.174,122.358)">
      <stop
         offset="0"
         stop-color="#473600"
         id="stop84" />
      <stop
         offset="0.792135000228882"
         stop-color="#3d2f00"
         id="stop86" />
      <stop
         offset="0.990000009536743"
         stop-color="#3a2c00"
         id="stop88" />
      <stop
         offset="1"
         stop-color="#3a2c00"
         id="stop90" />
    </radialGradient>
    <radialGradient
       id="RadialGradient_1"
       gradientUnits="userSpaceOnUse"
       cx="0"
       cy="0"
       r="237.42799"
       gradientTransform="matrix(0,-1,0.886054,0,170.916,119.88)">
      <stop
         offset="0"
         stop-color="#553e00"
         id="stop93" />
      <stop
         offset="0.792135000228882"
         stop-color="#403200"
         id="stop95" />
      <stop
         offset="0.990000009536743"
         stop-color="#3b2b00"
         id="stop97" />
      <stop
         offset="1"
         stop-color="#3b2b00"
         id="stop99" />
    </radialGradient>
    <radialGradient
       id="RadialGradient_2"
       gradientUnits="userSpaceOnUse"
       cx="0"
       cy="0"
       r="237.42799"
       gradientTransform="matrix(0,-1,0.886054,0,169.66,117.403)">
      <stop
         offset="0"
         stop-color="#634700"
         id="stop102" />
      <stop
         offset="0.792135000228882"
         stop-color="#443400"
         id="stop104" />
      <stop
         offset="0.990000009536743"
         stop-color="#3c2a00"
         id="stop106" />
      <stop
         offset="1"
         stop-color="#3c2a00"
         id="stop108" />
    </radialGradient>
    <radialGradient
       id="RadialGradient_3"
       gradientUnits="userSpaceOnUse"
       cx="0"
       cy="0"
       r="237.42799"
       gradientTransform="matrix(0,-1,0.886054,0,168.403,114.925)">
      <stop
         offset="0"
         stop-color="#724f00"
         id="stop111" />
      <stop
         offset="0.792135000228882"
         stop-color="#473600"
         id="stop113" />
      <stop
         offset="0.990000009536743"
         stop-color="#3c2900"
         id="stop115" />
      <stop
         offset="1"
         stop-color="#3c2900"
         id="stop117" />
    </radialGradient>
    <radialGradient
       id="RadialGradient_4"
       gradientUnits="userSpaceOnUse"
       cx="0"
       cy="0"
       r="237.42799"
       gradientTransform="matrix(0,-1,0.886054,0,167.146,112.448)">
      <stop
         offset="0"
         stop-color="#805800"
         id="stop120" />
      <stop
         offset="0.792135000228882"
         stop-color="#4b3800"
         id="stop122" />
      <stop
         offset="0.990000009536743"
         stop-color="#3d2800"
         id="stop124" />
      <stop
         offset="1"
         stop-color="#3d2800"
         id="stop126" />
    </radialGradient>
    <radialGradient
       id="RadialGradient_5"
       gradientUnits="userSpaceOnUse"
       cx="0"
       cy="0"
       r="237.42799"
       gradientTransform="matrix(0,-1,0.886054,0,165.889,109.97)">
      <stop
         offset="0"
         stop-color="#8e6000"
         id="stop129" />
      <stop
         offset="0.792135000228882"
         stop-color="#4e3b00"
         id="stop131" />
      <stop
         offset="0.990000009536743"
         stop-color="#3e2700"
         id="stop133" />
      <stop
         offset="1"
         stop-color="#3e2700"
         id="stop135" />
    </radialGradient>
    <radialGradient
       id="RadialGradient_6"
       gradientUnits="userSpaceOnUse"
       cx="0"
       cy="0"
       r="237.42799"
       gradientTransform="matrix(0,-1,0.886054,0,164.632,107.493)">
      <stop
         offset="0"
         stop-color="#9c6900"
         id="stop138" />
      <stop
         offset="0.792135000228882"
         stop-color="#523d00"
         id="stop140" />
      <stop
         offset="0.990000009536743"
         stop-color="#3f2600"
         id="stop142" />
      <stop
         offset="1"
         stop-color="#3f2600"
         id="stop144" />
    </radialGradient>
    <linearGradient
       id="LinearGradient"
       gradientUnits="userSpaceOnUse"
       x1="0"
       y1="0"
       x2="42.75"
       y2="36.75"
       gradientTransform="translate(218.601,165.399)">
      <stop
         offset="0"
         stop-color="#5c5c5c"
         id="stop147" />
      <stop
         offset="1"
         stop-color="#000000"
         id="stop149" />
    </linearGradient>
    <linearGradient
       id="LinearGradient_1"
       gradientUnits="userSpaceOnUse"
       x1="0"
       y1="0"
       x2="-9.6719999"
       y2="-141.858"
       gradientTransform="translate(181.122,157.792)">
      <stop
         offset="0"
         stop-color="#ffffff"
         id="stop152" />
      <stop
         offset="1"
         stop-color="#cfd1d2"
         id="stop154" />
    </linearGradient>
    <linearGradient
       id="LinearGradient_2"
       gradientUnits="userSpaceOnUse"
       x1="0"
       y1="0"
       x2="69.75"
       y2="-189.75"
       gradientTransform="translate(259.851,172.899)">
      <stop
         offset="0"
         stop-color="#b5b5b5"
         id="stop157" />
      <stop
         offset="1"
         stop-color="#000000"
         id="stop159" />
    </linearGradient>
    <linearGradient
       id="LinearGradient_3"
       gradientUnits="userSpaceOnUse"
       x1="0"
       y1="0"
       x2="-51.527"
       y2="-64.410004"
       gradientTransform="translate(204.11,87.059)">
      <stop
         offset="0"
         stop-color="#df9000"
         id="stop162" />
      <stop
         offset="0.730337023735046"
         stop-color="#7f5200"
         id="stop164" />
      <stop
         offset="0.990000009536743"
         stop-color="#3f2600"
         id="stop166" />
      <stop
         offset="1"
         stop-color="#3f2600"
         id="stop168" />
    </linearGradient>
    <linearGradient
       id="LinearGradient_4"
       gradientUnits="userSpaceOnUse"
       x1="0"
       y1="0"
       x2="19.041"
       y2="85.190002"
       gradientTransform="translate(199.945,96.333)">
      <stop
         offset="0"
         stop-color="#ba7d00"
         id="stop171" />
      <stop
         offset="0.792135000228882"
         stop-color="#7f5200"
         id="stop173" />
      <stop
         offset="0.990000009536743"
         stop-color="#3f2600"
         id="stop175" />
      <stop
         offset="1"
         stop-color="#3f2600"
         id="stop177" />
    </linearGradient>
    <linearGradient
       id="LinearGradient_5"
       gradientUnits="userSpaceOnUse"
       x1="0"
       y1="0"
       x2="-1.007"
       y2="-63.535999"
       gradientTransform="translate(129.134,111.014)">
      <stop
         offset="0"
         stop-color="#df9000"
         id="stop180" />
      <stop
         offset="0.792135000228882"
         stop-color="#7f5200"
         id="stop182" />
      <stop
         offset="0.990000009536743"
         stop-color="#3f2600"
         id="stop184" />
      <stop
         offset="1"
         stop-color="#3f2600"
         id="stop186" />
    </linearGradient>
    <linearGradient
       id="LinearGradient_6"
       gradientUnits="userSpaceOnUse"
       x1="0"
       y1="0"
       x2="15.098"
       y2="58.375"
       gradientTransform="translate(129.286,104.867)">
      <stop
         offset="0"
         stop-color="#df9000"
         id="stop189" />
      <stop
         offset="0.792135000228882"
         stop-color="#7f5200"
         id="stop191" />
      <stop
         offset="0.990000009536743"
         stop-color="#3f2600"
         id="stop193" />
      <stop
         offset="1"
         stop-color="#3f2600"
         id="stop195" />
    </linearGradient>
    <radialGradient
       id="RadialGradient_7"
       gradientUnits="userSpaceOnUse"
       cx="0"
       cy="0"
       r="38.716999"
       gradientTransform="matrix(0.69735527,-0.71672563,1.2319152,1.1986212,183.351,196.899)">
      <stop
         offset="0"
         stop-color="#6b4c29"
         id="stop198" />
      <stop
         offset="1"
         stop-color="#a57348"
         id="stop200" />
    </radialGradient>
    <radialGradient
       id="RadialGradient_8"
       gradientUnits="userSpaceOnUse"
       cx="0"
       cy="0"
       r="120.999"
       gradientTransform="matrix(0,-1,0.973942,0,134.346,314.993)">
      <stop
         offset="0"
         stop-color="#e0bf9e"
         id="stop203" />
      <stop
         offset="1.68539006263018E-02"
         stop-color="#e0bf9e"
         id="stop205" />
      <stop
         offset="0.202246993780136"
         stop-color="#e6b891"
         id="stop207" />
      <stop
         offset="1"
         stop-color="#7b5d39"
         id="stop209" />
    </radialGradient>
    <radialGradient
       id="RadialGradient_9"
       gradientUnits="userSpaceOnUse"
       cx="0"
       cy="0"
       r="87.054001"
       gradientTransform="matrix(-0.01429027,-0.99989789,1.2061368,-0.01723778,146.601,370.899)">
      <stop
         offset="0"
         stop-color="#9a9a9a"
         id="stop212" />
      <stop
         offset="1"
         stop-color="#313131"
         id="stop214" />
    </radialGradient>
    <linearGradient
       id="LinearGradient_7"
       gradientUnits="userSpaceOnUse"
       x1="0"
       y1="0"
       x2="-54"
       y2="-87"
       gradientTransform="translate(213.351,257.649)">
      <stop
         offset="0"
         stop-color="#484848"
         id="stop217" />
      <stop
         offset="1"
         stop-color="#000000"
         id="stop219" />
    </linearGradient>
    <linearGradient
       id="LinearGradient_8"
       gradientUnits="userSpaceOnUse"
       x1="0"
       y1="0"
       x2="10.5"
       y2="-85.5"
       gradientTransform="translate(133.101,343.149)">
      <stop
         offset="0"
         stop-color="#8d8d8d"
         id="stop222" />
      <stop
         offset="1"
         stop-color="#000000"
         id="stop224" />
    </linearGradient>
    <linearGradient
       id="LinearGradient_9"
       gradientUnits="userSpaceOnUse"
       x1="0"
       y1="0"
       x2="3.5999999"
       y2="-129"
       gradientTransform="translate(239.24,380.259)">
      <stop
         offset="0"
         stop-color="#ffffff"
         id="stop227" />
      <stop
         offset="1"
         stop-color="#000000"
         id="stop229" />
    </linearGradient>
    <linearGradient
       id="LinearGradient_10"
       gradientUnits="userSpaceOnUse"
       x1="0"
       y1="0"
       x2="108"
       y2="-33.75"
       gradientTransform="translate(115.007,352.336)">
      <stop
         offset="0"
         stop-color="#ffffff"
         id="stop232" />
      <stop
         offset="1"
         stop-color="#000000"
         id="stop234" />
    </linearGradient>
    <linearGradient
       id="LinearGradient_11"
       gradientUnits="userSpaceOnUse"
       x1="0"
       y1="0"
       x2="-51.527"
       y2="-64.410004"
       gradientTransform="translate(226.61,87.059)">
      <stop
         offset="0"
         stop-color="#df9000"
         id="stop237" />
      <stop
         offset="0.730337023735046"
         stop-color="#7f5200"
         id="stop239" />
      <stop
         offset="0.990000009536743"
         stop-color="#3f2600"
         id="stop241" />
      <stop
         offset="1"
         stop-color="#3f2600"
         id="stop243" />
    </linearGradient>
  </defs>
  <g
     id="g3430"
     transform="matrix(0.64050449,0,0,0.64031522,0,25.600003)">
    <path
       id="path3432"
       d="M 15.343935,-6.8058337 C 14.719453,-7.0190887 14.104963,-7.272329 13.542097,-7.6105382 13.037515,-7.9187583 12.30812,-8.5318664 12.579562,-9.1816278 12.631186,-9.2982516 12.712785,-9.3832204 12.799379,-9.4748534 12.925941,-9.613136 13.06749,-9.7081011 13.260663,-9.7280938 L 13.260663,-9.7297598 C 13.457167,-9.7514185 13.642014,-9.6014736 13.771906,-9.4781856 14.069992,-9.1916241 14.279818,-8.8400866 14.559586,-8.5385307 14.644515,-8.4468977 14.769411,-8.3852536 14.872659,-8.3152793 15.222369,-8.0786995 15.618707,-7.9070959 16.01671,-7.7654813 16.48299,-7.5988758 16.972583,-7.483918 17.455516,-7.3672942 18.018382,-7.2323437 18.546278,-7.1090557 19.132458,-7.1773639 19.578754,-7.2290116 20.008398,-7.3522997 20.423054,-7.5105749 20.599574,-7.5788831 20.834379,-7.7504868 21.029217,-7.6821785 21.355613,-7.5688868 21.234047,-7.300652 21.055862,-7.1240502 20.737792,-6.8074998 20.306484,-6.5742521 19.871844,-6.4459659 18.406394,-6.0177898 16.752766,-6.3260099 15.343935,-6.8058337 z M 18.556269,-8.7051361 C 16.92429,-8.8134297 15.407216,-9.3349048 14.066661,-10.242905 13.585394,-10.567785 13.104127,-10.93765 12.739429,-11.382486 12.612868,-11.534097 12.348087,-11.873972 12.589554,-12.042244 12.704458,-12.122214 12.857664,-12.118882 12.990887,-12.133877 L 12.989222,-12.133877 C 13.115784,-12.150537 13.312287,-12.165532 13.433853,-12.125547 13.695303,-12.040578 13.903463,-11.759015 14.104963,-11.589077 14.43802,-11.30918 14.794391,-11.057605 15.182402,-10.851015 16.166585,-10.326207 17.370586,-9.9929965 18.49965,-9.9680057 18.930958,-9.9563433 19.362267,-9.9630075 19.791911,-10.019653 19.971761,-10.042978 20.248199,-10.146274 20.423054,-10.067969 20.817726,-9.8913671 20.947618,-9.0883287 20.502987,-8.8884022 20.34645,-8.8184279 20.133294,-8.8067655 19.9651,-8.7784425 19.502151,-8.7068022 19.024214,-8.6751472 18.556269,-8.7051361 z M 14.174905,-12.675345 C 13.696968,-13.026882 13.219031,-13.470053 13.094135,-14.056504 13.020862,-14.399711 13.087474,-14.71293 13.350589,-14.877869 L 13.675319,-14.989495 14.011707,-14.967836 C 14.309793,-14.876203 14.506296,-14.604636 14.719453,-14.353062 15.179072,-13.803264 15.667,-13.256798 16.268168,-12.84195 17.015881,-12.332137 17.990072,-12.133877 18.889326,-12.275491 19.192408,-12.320475 19.483833,-12.403778 19.778588,-12.483748 19.945117,-12.528732 20.139955,-12.600372 20.31481,-12.575381 20.37476,-12.563719 20.448033,-12.548724 20.502987,-12.520402 20.905986,-12.318809 20.596243,-11.847315 20.299823,-11.719029 19.751944,-11.474119 19.097487,-11.379154 18.49965,-11.354163 16.967587,-11.289187 15.392228,-11.777341 14.174905,-12.675345 z"
       style="fill:#000000;fill-opacity:1;fill-rule:evenodd;stroke:none"
       inkscape:connector-curvature="0" />
    <path
       id="path3434"
       d="M 19.250693,-16.54559 C 19.192408,-16.813825 19.272342,-17.077061 19.418887,-17.315307 19.6437,-17.685171 20.026716,-17.980063 20.308149,-18.319938 20.629549,-18.714793 20.862689,-19.149633 21.089168,-19.591138 21.259027,-19.931013 21.528803,-20.21091 21.259027,-20.567446 21.21906,-20.622426 21.170766,-20.67574 21.112482,-20.720723 20.887668,-20.890661 20.51964,-20.727387 20.298157,-20.627424 19.823551,-20.410837 19.400569,-20.100951 18.989243,-19.809391 18.861016,-19.722756 18.621215,-19.479512 18.451356,-19.466184 18.381414,-19.461186 18.346443,-19.547821 18.323129,-19.591138 18.239865,-19.737751 18.191572,-19.89436 18.144944,-20.050969 18.013386,-20.514132 18.06501,-21.030609 17.855184,-21.475446 17.723627,-21.750345 17.39057,-21.898624 17.060843,-21.777002 16.696146,-21.643717 16.492981,-21.297178 16.393064,-20.985626 16.146602,-20.255894 16.39806,-19.546154 16.441357,-18.809758 16.45801,-18.49654 16.587903,-17.758478 16.065003,-17.683505 15.890148,-17.658514 15.60705,-17.693502 15.487149,-17.821788 15.422203,-17.895094 15.408881,-18.02338 15.378906,-18.110015 15.297307,-18.353259 15.235691,-18.603167 15.179072,-18.849744 14.999221,-19.626125 14.87932,-20.507468 15.139105,-21.280517 15.270662,-21.668708 15.502137,-22.048569 15.915127,-22.265156 16.742774,-22.696664 17.926792,-22.476745 18.481331,-21.796994 18.61622,-21.627057 18.70781,-21.430462 18.76443,-21.227204 L 18.841033,-20.610763 19.445531,-21.180554 C 19.765266,-21.478778 20.129963,-21.742015 20.552946,-21.918616 20.712813,-21.983593 20.889333,-22.031908 21.060858,-22.058565 21.202407,-22.078558 21.360609,-22.09022 21.502158,-22.068561 22.249871,-21.953604 22.483011,-21.117244 22.483011,-20.567446 22.484676,-19.897692 22.298164,-19.232936 21.915149,-18.639821 21.595414,-18.153333 21.150783,-17.730155 20.769433,-17.27199 20.572929,-17.038742 20.388083,-16.797164 20.189914,-16.56225 20.08167,-16.430632 19.950113,-16.287351 19.75694,-16.249032 19.49882,-16.19905 19.300652,-16.330669 19.250693,-16.54559 z"
       style="fill:#000000;fill-opacity:1;fill-rule:evenodd;stroke:none"
       inkscape:connector-curvature="0" />
    <path
       id="path3436"
       d="M 0,-3.651992 0,-36.328324 C 0,-38.342584 1.6353097,-39.980316 3.6503044,-39.980316 L 36.318198,-39.980316 C 38.331527,-39.980316 39.968502,-38.342584 39.968502,-36.328324 L 39.968502,-3.651992 C 39.968502,-1.6360658 38.331527,0 36.318198,0 L 3.6503044,0 C 1.6353097,0 0,-1.6360658 0,-3.651992 z M 38.719538,-3.651992 38.719538,-36.328324 C 38.719538,-37.651172 37.640434,-38.730775 36.318198,-38.730775 L 3.6503044,-38.730775 C 2.326403,-38.730775 1.2489636,-37.651172 1.2489636,-36.328324 L 1.2489636,-3.651992 C 1.2489636,-2.3274785 2.326403,-1.2495411 3.6503044,-1.2495411 L 36.318198,-1.2495411 C 37.640434,-1.2495411 38.719538,-2.3274785 38.719538,-3.651992 z"
       style="fill:#000000;fill-opacity:1;fill-rule:evenodd;stroke:none"
       inkscape:connector-curvature="0" />
    <path
       id="path3438"
       d="M 22.576267,-8.3186114 C 22.156615,-10.399514 22.15495,-12.05224 23.194088,-14.013187 23.348959,-14.306412 24.882686,-15.475983 25.240723,-15.767542 26.987607,-17.188687 29.34898,-19.612797 29.447232,-22.021912 29.438906,-25.80219 27.697018,-29.094314 24.204916,-30.753705 22.706159,-31.46511 21.647038,-31.660039 20.051695,-31.896618 17.675334,-31.656707 15.706967,-31.303503 14.158252,-29.297573 13.840183,-28.892722 13.250672,-28.822747 12.846007,-29.140964 12.441343,-29.45918 12.371401,-30.05063 12.689471,-30.455481 13.573737,-31.555077 14.258169,-32.074886 15.500472,-32.72798 16.451349,-33.229462 17.808556,-33.542681 18.871008,-33.665969 20.306484,-33.830908 21.325638,-33.685961 22.726143,-33.296104 25.383937,-32.55471 27.775286,-30.953631 29.320671,-28.649478 29.778624,-27.966395 30.041739,-27.363283 30.378127,-26.625221 30.6912,-25.942139 30.799444,-25.187416 30.972633,-24.46768 31.139162,-23.772935 31.174133,-22.528393 31.102525,-21.810323 30.724506,-18.050037 27.070871,-15.332702 24.239886,-13.291785 23.530475,-11.93395 23.037551,-10.032982 23.502165,-8.518538 23.55712,-8.2636316 23.393922,-8.0103913 23.139133,-7.9554115 22.884345,-7.9004317 22.631221,-8.0637051 22.576267,-8.3186114 z M 24.239886,-13.291785 C 24.2632,-13.338434 24.28818,-13.385084 24.313159,-13.430067 24.271527,-13.348431 24.208246,-13.278456 24.138304,-13.218478 24.17161,-13.241803 24.204916,-13.26846 24.239886,-13.291785 z M 29.452228,-22.070227 C 29.450563,-22.053567 29.450563,-22.036906 29.447232,-22.021912 29.447232,-22.011916 29.448898,-22.001919 29.448898,-21.991923 29.447232,-22.020246 29.450563,-22.043571 29.452228,-22.070227 z M 20.134959,-31.904949 C 20.08167,-31.899951 20.025051,-31.896618 19.973427,-31.908281 19.998406,-31.903283 20.025051,-31.899951 20.051695,-31.896618 20.07834,-31.898285 20.106649,-31.901617 20.134959,-31.904949 z"
       style="fill:#000000;fill-opacity:1;fill-rule:evenodd;stroke:none"
       inkscape:connector-curvature="0" />
  </g>
</svg>
