<?xml version="1.0" encoding="UTF-8" standalone="no"?>
<!--Generator: Xara Designer (www.xara.com), SVG filter version: 3.0.2.3-->

<svg
   xmlns:dc="http://purl.org/dc/elements/1.1/"
   xmlns:cc="http://creativecommons.org/ns#"
   xmlns:rdf="http://www.w3.org/1999/02/22-rdf-syntax-ns#"
   xmlns:svg="http://www.w3.org/2000/svg"
   xmlns="http://www.w3.org/2000/svg"
   xmlns:xlink="http://www.w3.org/1999/xlink"
   xmlns:sodipodi="http://sodipodi.sourceforge.net/DTD/sodipodi-0.dtd"
   xmlns:inkscape="http://www.inkscape.org/namespaces/inkscape"
   version="1.1"
   overflow="visible"
   width="32"
   height="32"
   viewBox="0 0 25.600005 25.600001"
   id="svg2"
   inkscape:version="0.48.4 r9939"
   sodipodi:docname="phone telephone call.svg"
   style="fill-rule:evenodd;stroke-width:0.50099999;stroke-linejoin:bevel;overflow:visible">
  <script
     xlink:href=""
     id="script3301" />
  <script
     xlink:href=""
     id="script3299" />
  <metadata
     id="metadata322">
    <rdf:RDF>
      <cc:Work
         rdf:about="">
        <dc:format>image/svg+xml</dc:format>
        <dc:type
           rdf:resource="http://purl.org/dc/dcmitype/StillImage" />
        <dc:title></dc:title>
      </cc:Work>
    </rdf:RDF>
  </metadata>
  <sodipodi:namedview
     pagecolor="#ffffff"
     bordercolor="#666666"
     borderopacity="1"
     objecttolerance="10"
     gridtolerance="10"
     guidetolerance="10"
     inkscape:pageopacity="0"
     inkscape:pageshadow="2"
     inkscape:window-width="1858"
     inkscape:window-height="1058"
     id="namedview320"
     showgrid="false"
     inkscape:zoom="14.250004"
     inkscape:cx="23.789457"
     inkscape:cy="10.943206"
     inkscape:window-x="-8"
     inkscape:window-y="-8"
     inkscape:window-maximized="1"
     inkscape:current-layer="svg2"
     height="744.09px"
     width="512px" />
  <defs
     id="defs4">
    <marker
       id="DefaultArrow2"
       markerUnits="strokeWidth"
       viewBox="0 0 1 1"
       markerWidth="1"
       markerHeight="1"
       overflow="visible"
       orient="auto"
       style="overflow:visible">
      <!-- REF_ARROW_STRAIGHT (-2) -->
      <g
         transform="scale(0.00925926,0.00925926)"
         id="g7">
        <!-- 1/108 -->
        <path
           d="M -9,54 -9,-54 117,0 z"
           id="path9"
           inkscape:connector-curvature="0" />
      </g>
    </marker>
    <marker
       id="DefaultArrow3"
       markerUnits="strokeWidth"
       viewBox="0 0 1 1"
       markerWidth="1"
       markerHeight="1"
       overflow="visible"
       orient="auto"
       style="overflow:visible">
      <!-- REF_ARROW_ANGLED -->
      <g
         transform="scale(0.00925926,0.00925926)"
         id="g12">
        <path
           d="M -27,54 -9,0 -27,-54 135,0 z"
           id="path14"
           inkscape:connector-curvature="0" />
      </g>
    </marker>
    <marker
       id="DefaultArrow4"
       markerUnits="strokeWidth"
       viewBox="0 0 1 1"
       markerWidth="1"
       markerHeight="1"
       overflow="visible"
       orient="auto"
       style="overflow:visible">
      <!-- REF_ARROW_ROUNDED -->
      <g
         transform="scale(0.00925926,0.00925926)"
         id="g17">
        <path
           d="M -9,0 -9,-45 C -9,-51.708 2.808,-56.58 9,-54 L 117,-9 C 120.916,-7.369 126,-4.242 126,0 126,4.242 120.916,7.369 117,9 L 9,54 C 2.808,56.58 -9,51.708 -9,45 z"
           id="path19"
           inkscape:connector-curvature="0" />
      </g>
    </marker>
    <marker
       id="DefaultArrow5"
       markerUnits="strokeWidth"
       viewBox="0 0 1 1"
       markerWidth="1"
       markerHeight="1"
       overflow="visible"
       orient="auto"
       style="overflow:visible">
      <!-- REF_ARROW_SPOT -->
      <g
         transform="scale(0.00925926,0.00925926)"
         id="g22">
        <path
           d="M -54,0 C -54,29.807 -29.807,54 0,54 29.807,54 54,29.807 54,0 54,-29.807 29.807,-54 0,-54 -29.807,-54 -54,-29.807 -54,0 z"
           id="path24"
           inkscape:connector-curvature="0" />
      </g>
    </marker>
    <marker
       id="DefaultArrow6"
       markerUnits="strokeWidth"
       viewBox="0 0 1 1"
       markerWidth="1"
       markerHeight="1"
       overflow="visible"
       orient="auto"
       style="overflow:visible">
      <!-- REF_ARROW_DIAMOND -->
      <g
         transform="scale(0.00925926,0.00925926)"
         id="g27">
        <path
           d="M -63,0 0,63 63,0 0,-63 z"
           id="path29"
           inkscape:connector-curvature="0" />
      </g>
    </marker>
    <marker
       id="DefaultArrow7"
       markerUnits="strokeWidth"
       viewBox="0 0 1 1"
       markerWidth="1"
       markerHeight="1"
       overflow="visible"
       orient="auto"
       style="overflow:visible">
      <!-- REF_ARROW_FEATHER -->
      <g
         transform="scale(0.00925926,0.00925926)"
         id="g32">
        <path
           d="M 18,-54 108,-54 63,0 108,54 18,54 -36,0 z"
           id="path34"
           inkscape:connector-curvature="0" />
      </g>
    </marker>
    <marker
       id="DefaultArrow8"
       markerUnits="strokeWidth"
       viewBox="0 0 1 1"
       markerWidth="1"
       markerHeight="1"
       overflow="visible"
       orient="auto"
       style="overflow:visible">
      <!-- REF_ARROW_FEATHER2 -->
      <g
         transform="scale(0.00925926,0.00925926)"
         id="g37">
        <path
           d="M -36,0 18,-54 54,-54 18,-18 27,-18 63,-54 99,-54 63,-18 72,-18 108,-54 144,-54 90,0 144,54 108,54 72,18 63,18 99,54 63,54 27,18 18,18 54,54 18,54 z"
           id="path39"
           inkscape:connector-curvature="0" />
      </g>
    </marker>
    <marker
       id="DefaultArrow9"
       markerUnits="strokeWidth"
       viewBox="0 0 1 1"
       markerWidth="1"
       markerHeight="1"
       overflow="visible"
       orient="auto"
       style="overflow:visible">
      <!-- REF_ARROW_HOLLOWDIAMOND -->
      <g
         transform="scale(0.00925926,0.00925926)"
         id="g42">
        <path
           d="M 0,45 -45,0 0,-45 45,0 z M 0,63 -63,0 0,-63 63,0 z"
           id="path44"
           inkscape:connector-curvature="0" />
      </g>
    </marker>
    <filter
       id="StainedFilter"
       color-interpolation-filters="sRGB">
      <feBlend
         mode="multiply"
         in2="BackgroundImage"
         in="SourceGraphic"
         result="blend"
         id="feBlend47" />
      <feComposite
         in="blend"
         in2="SourceAlpha"
         operator="in"
         result="comp"
         id="feComposite49" />
    </filter>
    <filter
       id="BleachFilter"
       color-interpolation-filters="sRGB">
      <feBlend
         mode="screen"
         in2="BackgroundImage"
         in="SourceGraphic"
         result="blend"
         id="feBlend52" />
      <feComposite
         in="blend"
         in2="SourceAlpha"
         operator="in"
         result="comp"
         id="feComposite54" />
    </filter>
    <filter
       id="InvertTransparencyBitmapFilter"
       color-interpolation-filters="sRGB">
      <feComponentTransfer
         id="feComponentTransfer57">
        <feFuncR
           type="gamma"
           amplitude="1.055"
           exponent=".416666666"
           offset="-0.055"
           id="feFuncR59" />
        <feFuncG
           type="gamma"
           amplitude="1.055"
           exponent=".416666666"
           offset="-0.055"
           id="feFuncG61" />
        <feFuncB
           type="gamma"
           amplitude="1.055"
           exponent=".416666666"
           offset="-0.055"
           id="feFuncB63" />
      </feComponentTransfer>
      <feComponentTransfer
         id="feComponentTransfer65">
        <feFuncR
           type="linear"
           slope="-1"
           intercept="1"
           id="feFuncR67" />
        <feFuncG
           type="linear"
           slope="-1"
           intercept="1"
           id="feFuncG69" />
        <feFuncB
           type="linear"
           slope="-1"
           intercept="1"
           id="feFuncB71" />
        <feFuncA
           type="linear"
           slope="1"
           intercept="0"
           id="feFuncA73" />
      </feComponentTransfer>
      <feComponentTransfer
         id="feComponentTransfer75">
        <feFuncR
           type="gamma"
           amplitude="1"
           exponent="2.4"
           offset="0"
           id="feFuncR77" />
        <feFuncG
           type="gamma"
           amplitude="1"
           exponent="2.4"
           offset="0"
           id="feFuncG79" />
        <feFuncB
           type="gamma"
           amplitude="1"
           exponent="2.4"
           offset="0"
           id="feFuncB81" />
      </feComponentTransfer>
    </filter>
    <radialGradient
       id="RadialGradient"
       gradientUnits="userSpaceOnUse"
       cx="0"
       cy="0"
       r="237.42799"
       gradientTransform="matrix(0,-1,0.886054,0,172.174,122.358)">
      <stop
         offset="0"
         stop-color="#473600"
         id="stop84" />
      <stop
         offset="0.792135000228882"
         stop-color="#3d2f00"
         id="stop86" />
      <stop
         offset="0.990000009536743"
         stop-color="#3a2c00"
         id="stop88" />
      <stop
         offset="1"
         stop-color="#3a2c00"
         id="stop90" />
    </radialGradient>
    <radialGradient
       id="RadialGradient_1"
       gradientUnits="userSpaceOnUse"
       cx="0"
       cy="0"
       r="237.42799"
       gradientTransform="matrix(0,-1,0.886054,0,170.916,119.88)">
      <stop
         offset="0"
         stop-color="#553e00"
         id="stop93" />
      <stop
         offset="0.792135000228882"
         stop-color="#403200"
         id="stop95" />
      <stop
         offset="0.990000009536743"
         stop-color="#3b2b00"
         id="stop97" />
      <stop
         offset="1"
         stop-color="#3b2b00"
         id="stop99" />
    </radialGradient>
    <radialGradient
       id="RadialGradient_2"
       gradientUnits="userSpaceOnUse"
       cx="0"
       cy="0"
       r="237.42799"
       gradientTransform="matrix(0,-1,0.886054,0,169.66,117.403)">
      <stop
         offset="0"
         stop-color="#634700"
         id="stop102" />
      <stop
         offset="0.792135000228882"
         stop-color="#443400"
         id="stop104" />
      <stop
         offset="0.990000009536743"
         stop-color="#3c2a00"
         id="stop106" />
      <stop
         offset="1"
         stop-color="#3c2a00"
         id="stop108" />
    </radialGradient>
    <radialGradient
       id="RadialGradient_3"
       gradientUnits="userSpaceOnUse"
       cx="0"
       cy="0"
       r="237.42799"
       gradientTransform="matrix(0,-1,0.886054,0,168.403,114.925)">
      <stop
         offset="0"
         stop-color="#724f00"
         id="stop111" />
      <stop
         offset="0.792135000228882"
         stop-color="#473600"
         id="stop113" />
      <stop
         offset="0.990000009536743"
         stop-color="#3c2900"
         id="stop115" />
      <stop
         offset="1"
         stop-color="#3c2900"
         id="stop117" />
    </radialGradient>
    <radialGradient
       id="RadialGradient_4"
       gradientUnits="userSpaceOnUse"
       cx="0"
       cy="0"
       r="237.42799"
       gradientTransform="matrix(0,-1,0.886054,0,167.146,112.448)">
      <stop
         offset="0"
         stop-color="#805800"
         id="stop120" />
      <stop
         offset="0.792135000228882"
         stop-color="#4b3800"
         id="stop122" />
      <stop
         offset="0.990000009536743"
         stop-color="#3d2800"
         id="stop124" />
      <stop
         offset="1"
         stop-color="#3d2800"
         id="stop126" />
    </radialGradient>
    <radialGradient
       id="RadialGradient_5"
       gradientUnits="userSpaceOnUse"
       cx="0"
       cy="0"
       r="237.42799"
       gradientTransform="matrix(0,-1,0.886054,0,165.889,109.97)">
      <stop
         offset="0"
         stop-color="#8e6000"
         id="stop129" />
      <stop
         offset="0.792135000228882"
         stop-color="#4e3b00"
         id="stop131" />
      <stop
         offset="0.990000009536743"
         stop-color="#3e2700"
         id="stop133" />
      <stop
         offset="1"
         stop-color="#3e2700"
         id="stop135" />
    </radialGradient>
    <radialGradient
       id="RadialGradient_6"
       gradientUnits="userSpaceOnUse"
       cx="0"
       cy="0"
       r="237.42799"
       gradientTransform="matrix(0,-1,0.886054,0,164.632,107.493)">
      <stop
         offset="0"
         stop-color="#9c6900"
         id="stop138" />
      <stop
         offset="0.792135000228882"
         stop-color="#523d00"
         id="stop140" />
      <stop
         offset="0.990000009536743"
         stop-color="#3f2600"
         id="stop142" />
      <stop
         offset="1"
         stop-color="#3f2600"
         id="stop144" />
    </radialGradient>
    <linearGradient
       id="LinearGradient"
       gradientUnits="userSpaceOnUse"
       x1="0"
       y1="0"
       x2="42.75"
       y2="36.75"
       gradientTransform="translate(218.601,165.399)">
      <stop
         offset="0"
         stop-color="#5c5c5c"
         id="stop147" />
      <stop
         offset="1"
         stop-color="#000000"
         id="stop149" />
    </linearGradient>
    <linearGradient
       id="LinearGradient_1"
       gradientUnits="userSpaceOnUse"
       x1="0"
       y1="0"
       x2="-9.6719999"
       y2="-141.858"
       gradientTransform="translate(181.122,157.792)">
      <stop
         offset="0"
         stop-color="#ffffff"
         id="stop152" />
      <stop
         offset="1"
         stop-color="#cfd1d2"
         id="stop154" />
    </linearGradient>
    <linearGradient
       id="LinearGradient_2"
       gradientUnits="userSpaceOnUse"
       x1="0"
       y1="0"
       x2="69.75"
       y2="-189.75"
       gradientTransform="translate(259.851,172.899)">
      <stop
         offset="0"
         stop-color="#b5b5b5"
         id="stop157" />
      <stop
         offset="1"
         stop-color="#000000"
         id="stop159" />
    </linearGradient>
    <linearGradient
       id="LinearGradient_3"
       gradientUnits="userSpaceOnUse"
       x1="0"
       y1="0"
       x2="-51.527"
       y2="-64.410004"
       gradientTransform="translate(204.11,87.059)">
      <stop
         offset="0"
         stop-color="#df9000"
         id="stop162" />
      <stop
         offset="0.730337023735046"
         stop-color="#7f5200"
         id="stop164" />
      <stop
         offset="0.990000009536743"
         stop-color="#3f2600"
         id="stop166" />
      <stop
         offset="1"
         stop-color="#3f2600"
         id="stop168" />
    </linearGradient>
    <linearGradient
       id="LinearGradient_4"
       gradientUnits="userSpaceOnUse"
       x1="0"
       y1="0"
       x2="19.041"
       y2="85.190002"
       gradientTransform="translate(199.945,96.333)">
      <stop
         offset="0"
         stop-color="#ba7d00"
         id="stop171" />
      <stop
         offset="0.792135000228882"
         stop-color="#7f5200"
         id="stop173" />
      <stop
         offset="0.990000009536743"
         stop-color="#3f2600"
         id="stop175" />
      <stop
         offset="1"
         stop-color="#3f2600"
         id="stop177" />
    </linearGradient>
    <linearGradient
       id="LinearGradient_5"
       gradientUnits="userSpaceOnUse"
       x1="0"
       y1="0"
       x2="-1.007"
       y2="-63.535999"
       gradientTransform="translate(129.134,111.014)">
      <stop
         offset="0"
         stop-color="#df9000"
         id="stop180" />
      <stop
         offset="0.792135000228882"
         stop-color="#7f5200"
         id="stop182" />
      <stop
         offset="0.990000009536743"
         stop-color="#3f2600"
         id="stop184" />
      <stop
         offset="1"
         stop-color="#3f2600"
         id="stop186" />
    </linearGradient>
    <linearGradient
       id="LinearGradient_6"
       gradientUnits="userSpaceOnUse"
       x1="0"
       y1="0"
       x2="15.098"
       y2="58.375"
       gradientTransform="translate(129.286,104.867)">
      <stop
         offset="0"
         stop-color="#df9000"
         id="stop189" />
      <stop
         offset="0.792135000228882"
         stop-color="#7f5200"
         id="stop191" />
      <stop
         offset="0.990000009536743"
         stop-color="#3f2600"
         id="stop193" />
      <stop
         offset="1"
         stop-color="#3f2600"
         id="stop195" />
    </linearGradient>
    <radialGradient
       id="RadialGradient_7"
       gradientUnits="userSpaceOnUse"
       cx="0"
       cy="0"
       r="38.716999"
       gradientTransform="matrix(0.69735527,-0.71672563,1.2319152,1.1986212,183.351,196.899)">
      <stop
         offset="0"
         stop-color="#6b4c29"
         id="stop198" />
      <stop
         offset="1"
         stop-color="#a57348"
         id="stop200" />
    </radialGradient>
    <radialGradient
       id="RadialGradient_8"
       gradientUnits="userSpaceOnUse"
       cx="0"
       cy="0"
       r="120.999"
       gradientTransform="matrix(0,-1,0.973942,0,134.346,314.993)">
      <stop
         offset="0"
         stop-color="#e0bf9e"
         id="stop203" />
      <stop
         offset="1.68539006263018E-02"
         stop-color="#e0bf9e"
         id="stop205" />
      <stop
         offset="0.202246993780136"
         stop-color="#e6b891"
         id="stop207" />
      <stop
         offset="1"
         stop-color="#7b5d39"
         id="stop209" />
    </radialGradient>
    <radialGradient
       id="RadialGradient_9"
       gradientUnits="userSpaceOnUse"
       cx="0"
       cy="0"
       r="87.054001"
       gradientTransform="matrix(-0.01429027,-0.99989789,1.2061368,-0.01723778,146.601,370.899)">
      <stop
         offset="0"
         stop-color="#9a9a9a"
         id="stop212" />
      <stop
         offset="1"
         stop-color="#313131"
         id="stop214" />
    </radialGradient>
    <linearGradient
       id="LinearGradient_7"
       gradientUnits="userSpaceOnUse"
       x1="0"
       y1="0"
       x2="-54"
       y2="-87"
       gradientTransform="translate(213.351,257.649)">
      <stop
         offset="0"
         stop-color="#484848"
         id="stop217" />
      <stop
         offset="1"
         stop-color="#000000"
         id="stop219" />
    </linearGradient>
    <linearGradient
       id="LinearGradient_8"
       gradientUnits="userSpaceOnUse"
       x1="0"
       y1="0"
       x2="10.5"
       y2="-85.5"
       gradientTransform="translate(133.101,343.149)">
      <stop
         offset="0"
         stop-color="#8d8d8d"
         id="stop222" />
      <stop
         offset="1"
         stop-color="#000000"
         id="stop224" />
    </linearGradient>
    <linearGradient
       id="LinearGradient_9"
       gradientUnits="userSpaceOnUse"
       x1="0"
       y1="0"
       x2="3.5999999"
       y2="-129"
       gradientTransform="translate(239.24,380.259)">
      <stop
         offset="0"
         stop-color="#ffffff"
         id="stop227" />
      <stop
         offset="1"
         stop-color="#000000"
         id="stop229" />
    </linearGradient>
    <linearGradient
       id="LinearGradient_10"
       gradientUnits="userSpaceOnUse"
       x1="0"
       y1="0"
       x2="108"
       y2="-33.75"
       gradientTransform="translate(115.007,352.336)">
      <stop
         offset="0"
         stop-color="#ffffff"
         id="stop232" />
      <stop
         offset="1"
         stop-color="#000000"
         id="stop234" />
    </linearGradient>
    <linearGradient
       id="LinearGradient_11"
       gradientUnits="userSpaceOnUse"
       x1="0"
       y1="0"
       x2="-51.527"
       y2="-64.410004"
       gradientTransform="translate(226.61,87.059)">
      <stop
         offset="0"
         stop-color="#df9000"
         id="stop237" />
      <stop
         offset="0.730337023735046"
         stop-color="#7f5200"
         id="stop239" />
      <stop
         offset="0.990000009536743"
         stop-color="#3f2600"
         id="stop241" />
      <stop
         offset="1"
         stop-color="#3f2600"
         id="stop243" />
    </linearGradient>
  </defs>
  <g
     id="g3553"
     transform="matrix(0.64050449,0,0,0.64031522,0,25.600003)">
    <path
       id="path3555"
       d="M 5.4921095,-16.219043 C 5.1757054,-17.420269 4.9975199,-18.638155 4.9975199,-19.851043 4.9975199,-25.1391 8.2847922,-30.077287 12.885974,-32.476406 13.122445,-32.599694 13.412204,-32.559708 13.610373,-32.368112 13.901798,-32.088215 17.895151,-27.859768 18.173254,-27.599863 18.441365,-27.354953 18.444695,-26.936773 18.183245,-26.686865 17.940114,-26.453618 6.8709654,-16.242368 6.517925,-15.917487 6.1715457,-15.600937 5.61201,-15.765876 5.4921095,-16.219043 z M 16.857679,-27.160025 16.80439,-27.215005 C 15.90014,-28.154659 14.079984,-30.072288 13.215701,-30.978622 L 13.060829,-31.14023 12.684475,-30.928641 C 8.8726378,-28.59783 6.2464835,-24.331064 6.2464835,-19.851043 6.2464835,-19.304577 6.2864504,-18.754778 6.3630535,-18.201648 L 6.4696317,-17.57188 6.5429042,-17.638522 C 8.8260098,-19.744415 14.897638,-25.347357 16.767753,-27.076722 L 16.857679,-27.160025 z"
       style="fill:#000000;fill-opacity:1;fill-rule:evenodd;stroke:none"
       inkscape:connector-curvature="0" />
    <path
       id="path3557"
       d="M 23.920152,-23.924546 C 23.513822,-24.336062 15.057506,-32.729646 14.739436,-33.046196 14.421367,-33.361081 14.527945,-33.899216 14.942601,-34.069154 16.36975,-34.652273 17.861845,-34.977154 19.393908,-34.977154 21.21906,-34.977154 22.982596,-34.553976 24.642885,-33.722614 24.854377,-33.615987 24.989265,-33.3994 24.989265,-33.164486 L 24.989265,-24.366051 C 24.989265,-23.809589 24.311494,-23.529691 23.920152,-23.924546 z M 23.740301,-25.867166 23.738636,-32.764633 23.522149,-32.866262 C 22.199913,-33.439385 20.816061,-33.727613 19.393908,-33.727613 18.378084,-33.727613 17.373917,-33.566005 16.389734,-33.261117 L 16.319792,-33.236126 16.54627,-33.009543 C 18.211555,-31.358483 21.675348,-27.919746 23.550459,-26.05543 L 23.740301,-25.867166 z"
       style="fill:#000000;fill-opacity:1;fill-rule:evenodd;stroke:none"
       inkscape:connector-curvature="0" />
    <path
       id="path3559"
       d="M 26.224906,-15.607601 26.224906,-31.685029 C 26.224906,-32.176516 26.769454,-32.474739 27.18411,-32.211503 31.230752,-29.634116 33.73201,-25.017478 33.73201,-20.089288 33.73201,-18.491542 33.463899,-16.91712 32.962649,-15.409341 32.877719,-15.154434 32.639583,-14.98283 32.371472,-14.98283 L 26.849388,-14.98283 C 26.504674,-14.98283 26.224906,-15.262728 26.224906,-15.607601 z M 32.483047,-20.089288 C 32.483047,-24.037838 30.726171,-27.756472 27.82358,-30.19391 L 27.47387,-30.46881 27.47387,-16.232372 31.911854,-16.232372 31.940164,-16.325671 C 32.296535,-17.548555 32.483047,-18.811424 32.483047,-20.089288 z"
       style="fill:#000000;fill-opacity:1;fill-rule:evenodd;stroke:none"
       inkscape:connector-curvature="0" />
    <path
       id="path3561"
       d="M 19.49882,-6.2293788 C 18.076667,-6.3460026 16.696146,-6.6792135 15.378906,-7.209019 15.142435,-7.3039841 14.987564,-7.5322336 14.987564,-7.788806 L 14.987564,-13.13351 C 14.987564,-13.476717 15.267332,-13.75828 15.612046,-13.75828 L 31.850238,-13.75828 C 32.321514,-13.75828 32.622931,-13.2518 32.399782,-12.836952 30.386453,-9.0933269 26.361459,-6.600909 21.885174,-6.2293788 L 21.83355,-6.2277127 19.550444,-6.2277127 19.49882,-6.2293788 z M 30.732832,-12.508739 16.236527,-12.508739 16.236527,-8.2253124 16.756096,-8.0370482 C 17.525458,-7.7921381 18.314803,-7.6188684 19.115805,-7.5222373 L 19.567097,-7.4772538 21.808571,-7.4772538 22.541296,-7.5588905 C 25.818577,-8.030384 28.729494,-9.7430883 30.54299,-12.227176 L 30.732832,-12.508739 z"
       style="fill:#000000;fill-opacity:1;fill-rule:evenodd;stroke:none"
       inkscape:connector-curvature="0" />
    <path
       id="path3563"
       d="M 12.811036,-7.6838446 C 10.048329,-9.2016205 7.8767974,-11.514104 6.676127,-14.249766 6.5645529,-14.504673 6.6344949,-14.804563 6.8509819,-14.98283 7.0125146,-15.116115 12.243174,-19.454521 12.711119,-19.846044 13.117449,-20.184253 13.736935,-19.89436 13.736935,-19.366221 L 13.736935,-8.2319766 C 13.736935,-7.757151 13.225692,-7.4555951 12.811036,-7.6838446 z M 12.486306,-9.3332388 12.487971,-18.033377 12.419695,-17.976731 C 11.090797,-16.875469 8.9509061,-15.10112 8.0349995,-14.316409 8.9991994,-12.325473 10.542918,-10.607771 12.486306,-9.3332388 z"
       style="fill:#000000;fill-opacity:1;fill-rule:evenodd;stroke:none"
       inkscape:connector-curvature="0" />
    <path
       id="path3565"
       d="M 0,-3.651992 0,-36.328324 C 0,-38.342584 1.6353097,-39.980316 3.6503044,-39.980316 L 36.318198,-39.980316 C 38.331527,-39.980316 39.968502,-38.342584 39.968502,-36.328324 L 39.968502,-3.651992 C 39.968502,-1.6360658 38.331527,0 36.318198,0 L 3.6503044,0 C 1.6353097,0 0,-1.6360658 0,-3.651992 z M 38.719538,-3.651992 38.719538,-36.328324 C 38.719538,-37.651172 37.640434,-38.730775 36.318198,-38.730775 L 3.6503044,-38.730775 C 2.326403,-38.730775 1.2489636,-37.651172 1.2489636,-36.328324 L 1.2489636,-3.651992 C 1.2489636,-2.3274785 2.326403,-1.2495411 3.6503044,-1.2495411 L 36.318198,-1.2495411 C 37.640434,-1.2495411 38.719538,-2.3274785 38.719538,-3.651992 z"
       style="fill:#000000;fill-opacity:1;fill-rule:evenodd;stroke:none"
       inkscape:connector-curvature="0" />
  </g>
</svg>
