<?xml version="1.0" encoding="UTF-8" standalone="no"?>
<!--Generator: Xara Designer (www.xara.com), SVG filter version: 3.0.2.3-->

<svg
   xmlns:dc="http://purl.org/dc/elements/1.1/"
   xmlns:cc="http://creativecommons.org/ns#"
   xmlns:rdf="http://www.w3.org/1999/02/22-rdf-syntax-ns#"
   xmlns:svg="http://www.w3.org/2000/svg"
   xmlns="http://www.w3.org/2000/svg"
   xmlns:xlink="http://www.w3.org/1999/xlink"
   xmlns:sodipodi="http://sodipodi.sourceforge.net/DTD/sodipodi-0.dtd"
   xmlns:inkscape="http://www.inkscape.org/namespaces/inkscape"
   version="1.1"
   overflow="visible"
   width="32"
   height="32"
   viewBox="0 0 25.600005 25.600001"
   id="svg2"
   inkscape:version="0.48.4 r9939"
   sodipodi:docname="dropbox.svg"
   style="fill-rule:evenodd;stroke-width:0.50099999;stroke-linejoin:bevel;overflow:visible">
  <script
     xlink:href=""
     id="script3301" />
  <script
     xlink:href=""
     id="script3299" />
  <metadata
     id="metadata322">
    <rdf:RDF>
      <cc:Work
         rdf:about="">
        <dc:format>image/svg+xml</dc:format>
        <dc:type
           rdf:resource="http://purl.org/dc/dcmitype/StillImage" />
        <dc:title></dc:title>
      </cc:Work>
    </rdf:RDF>
  </metadata>
  <sodipodi:namedview
     pagecolor="#ffffff"
     bordercolor="#666666"
     borderopacity="1"
     objecttolerance="10"
     gridtolerance="10"
     guidetolerance="10"
     inkscape:pageopacity="0"
     inkscape:pageshadow="2"
     inkscape:window-width="1858"
     inkscape:window-height="1058"
     id="namedview320"
     showgrid="false"
     inkscape:zoom="14.250004"
     inkscape:cx="23.789457"
     inkscape:cy="10.943206"
     inkscape:window-x="-8"
     inkscape:window-y="-8"
     inkscape:window-maximized="1"
     inkscape:current-layer="svg2"
     height="744.09px"
     width="512px" />
  <defs
     id="defs4">
    <marker
       id="DefaultArrow2"
       markerUnits="strokeWidth"
       viewBox="0 0 1 1"
       markerWidth="1"
       markerHeight="1"
       overflow="visible"
       orient="auto"
       style="overflow:visible">
      <!-- REF_ARROW_STRAIGHT (-2) -->
      <g
         transform="scale(0.00925926,0.00925926)"
         id="g7">
        <!-- 1/108 -->
        <path
           d="M -9,54 -9,-54 117,0 z"
           id="path9"
           inkscape:connector-curvature="0" />
      </g>
    </marker>
    <marker
       id="DefaultArrow3"
       markerUnits="strokeWidth"
       viewBox="0 0 1 1"
       markerWidth="1"
       markerHeight="1"
       overflow="visible"
       orient="auto"
       style="overflow:visible">
      <!-- REF_ARROW_ANGLED -->
      <g
         transform="scale(0.00925926,0.00925926)"
         id="g12">
        <path
           d="M -27,54 -9,0 -27,-54 135,0 z"
           id="path14"
           inkscape:connector-curvature="0" />
      </g>
    </marker>
    <marker
       id="DefaultArrow4"
       markerUnits="strokeWidth"
       viewBox="0 0 1 1"
       markerWidth="1"
       markerHeight="1"
       overflow="visible"
       orient="auto"
       style="overflow:visible">
      <!-- REF_ARROW_ROUNDED -->
      <g
         transform="scale(0.00925926,0.00925926)"
         id="g17">
        <path
           d="M -9,0 -9,-45 C -9,-51.708 2.808,-56.58 9,-54 L 117,-9 C 120.916,-7.369 126,-4.242 126,0 126,4.242 120.916,7.369 117,9 L 9,54 C 2.808,56.58 -9,51.708 -9,45 z"
           id="path19"
           inkscape:connector-curvature="0" />
      </g>
    </marker>
    <marker
       id="DefaultArrow5"
       markerUnits="strokeWidth"
       viewBox="0 0 1 1"
       markerWidth="1"
       markerHeight="1"
       overflow="visible"
       orient="auto"
       style="overflow:visible">
      <!-- REF_ARROW_SPOT -->
      <g
         transform="scale(0.00925926,0.00925926)"
         id="g22">
        <path
           d="M -54,0 C -54,29.807 -29.807,54 0,54 29.807,54 54,29.807 54,0 54,-29.807 29.807,-54 0,-54 -29.807,-54 -54,-29.807 -54,0 z"
           id="path24"
           inkscape:connector-curvature="0" />
      </g>
    </marker>
    <marker
       id="DefaultArrow6"
       markerUnits="strokeWidth"
       viewBox="0 0 1 1"
       markerWidth="1"
       markerHeight="1"
       overflow="visible"
       orient="auto"
       style="overflow:visible">
      <!-- REF_ARROW_DIAMOND -->
      <g
         transform="scale(0.00925926,0.00925926)"
         id="g27">
        <path
           d="M -63,0 0,63 63,0 0,-63 z"
           id="path29"
           inkscape:connector-curvature="0" />
      </g>
    </marker>
    <marker
       id="DefaultArrow7"
       markerUnits="strokeWidth"
       viewBox="0 0 1 1"
       markerWidth="1"
       markerHeight="1"
       overflow="visible"
       orient="auto"
       style="overflow:visible">
      <!-- REF_ARROW_FEATHER -->
      <g
         transform="scale(0.00925926,0.00925926)"
         id="g32">
        <path
           d="M 18,-54 108,-54 63,0 108,54 18,54 -36,0 z"
           id="path34"
           inkscape:connector-curvature="0" />
      </g>
    </marker>
    <marker
       id="DefaultArrow8"
       markerUnits="strokeWidth"
       viewBox="0 0 1 1"
       markerWidth="1"
       markerHeight="1"
       overflow="visible"
       orient="auto"
       style="overflow:visible">
      <!-- REF_ARROW_FEATHER2 -->
      <g
         transform="scale(0.00925926,0.00925926)"
         id="g37">
        <path
           d="M -36,0 18,-54 54,-54 18,-18 27,-18 63,-54 99,-54 63,-18 72,-18 108,-54 144,-54 90,0 144,54 108,54 72,18 63,18 99,54 63,54 27,18 18,18 54,54 18,54 z"
           id="path39"
           inkscape:connector-curvature="0" />
      </g>
    </marker>
    <marker
       id="DefaultArrow9"
       markerUnits="strokeWidth"
       viewBox="0 0 1 1"
       markerWidth="1"
       markerHeight="1"
       overflow="visible"
       orient="auto"
       style="overflow:visible">
      <!-- REF_ARROW_HOLLOWDIAMOND -->
      <g
         transform="scale(0.00925926,0.00925926)"
         id="g42">
        <path
           d="M 0,45 -45,0 0,-45 45,0 z M 0,63 -63,0 0,-63 63,0 z"
           id="path44"
           inkscape:connector-curvature="0" />
      </g>
    </marker>
    <filter
       id="StainedFilter"
       color-interpolation-filters="sRGB">
      <feBlend
         mode="multiply"
         in2="BackgroundImage"
         in="SourceGraphic"
         result="blend"
         id="feBlend47" />
      <feComposite
         in="blend"
         in2="SourceAlpha"
         operator="in"
         result="comp"
         id="feComposite49" />
    </filter>
    <filter
       id="BleachFilter"
       color-interpolation-filters="sRGB">
      <feBlend
         mode="screen"
         in2="BackgroundImage"
         in="SourceGraphic"
         result="blend"
         id="feBlend52" />
      <feComposite
         in="blend"
         in2="SourceAlpha"
         operator="in"
         result="comp"
         id="feComposite54" />
    </filter>
    <filter
       id="InvertTransparencyBitmapFilter"
       color-interpolation-filters="sRGB">
      <feComponentTransfer
         id="feComponentTransfer57">
        <feFuncR
           type="gamma"
           amplitude="1.055"
           exponent=".416666666"
           offset="-0.055"
           id="feFuncR59" />
        <feFuncG
           type="gamma"
           amplitude="1.055"
           exponent=".416666666"
           offset="-0.055"
           id="feFuncG61" />
        <feFuncB
           type="gamma"
           amplitude="1.055"
           exponent=".416666666"
           offset="-0.055"
           id="feFuncB63" />
      </feComponentTransfer>
      <feComponentTransfer
         id="feComponentTransfer65">
        <feFuncR
           type="linear"
           slope="-1"
           intercept="1"
           id="feFuncR67" />
        <feFuncG
           type="linear"
           slope="-1"
           intercept="1"
           id="feFuncG69" />
        <feFuncB
           type="linear"
           slope="-1"
           intercept="1"
           id="feFuncB71" />
        <feFuncA
           type="linear"
           slope="1"
           intercept="0"
           id="feFuncA73" />
      </feComponentTransfer>
      <feComponentTransfer
         id="feComponentTransfer75">
        <feFuncR
           type="gamma"
           amplitude="1"
           exponent="2.4"
           offset="0"
           id="feFuncR77" />
        <feFuncG
           type="gamma"
           amplitude="1"
           exponent="2.4"
           offset="0"
           id="feFuncG79" />
        <feFuncB
           type="gamma"
           amplitude="1"
           exponent="2.4"
           offset="0"
           id="feFuncB81" />
      </feComponentTransfer>
    </filter>
    <radialGradient
       id="RadialGradient"
       gradientUnits="userSpaceOnUse"
       cx="0"
       cy="0"
       r="237.42799"
       gradientTransform="matrix(0,-1,0.886054,0,172.174,122.358)">
      <stop
         offset="0"
         stop-color="#473600"
         id="stop84" />
      <stop
         offset="0.792135000228882"
         stop-color="#3d2f00"
         id="stop86" />
      <stop
         offset="0.990000009536743"
         stop-color="#3a2c00"
         id="stop88" />
      <stop
         offset="1"
         stop-color="#3a2c00"
         id="stop90" />
    </radialGradient>
    <radialGradient
       id="RadialGradient_1"
       gradientUnits="userSpaceOnUse"
       cx="0"
       cy="0"
       r="237.42799"
       gradientTransform="matrix(0,-1,0.886054,0,170.916,119.88)">
      <stop
         offset="0"
         stop-color="#553e00"
         id="stop93" />
      <stop
         offset="0.792135000228882"
         stop-color="#403200"
         id="stop95" />
      <stop
         offset="0.990000009536743"
         stop-color="#3b2b00"
         id="stop97" />
      <stop
         offset="1"
         stop-color="#3b2b00"
         id="stop99" />
    </radialGradient>
    <radialGradient
       id="RadialGradient_2"
       gradientUnits="userSpaceOnUse"
       cx="0"
       cy="0"
       r="237.42799"
       gradientTransform="matrix(0,-1,0.886054,0,169.66,117.403)">
      <stop
         offset="0"
         stop-color="#634700"
         id="stop102" />
      <stop
         offset="0.792135000228882"
         stop-color="#443400"
         id="stop104" />
      <stop
         offset="0.990000009536743"
         stop-color="#3c2a00"
         id="stop106" />
      <stop
         offset="1"
         stop-color="#3c2a00"
         id="stop108" />
    </radialGradient>
    <radialGradient
       id="RadialGradient_3"
       gradientUnits="userSpaceOnUse"
       cx="0"
       cy="0"
       r="237.42799"
       gradientTransform="matrix(0,-1,0.886054,0,168.403,114.925)">
      <stop
         offset="0"
         stop-color="#724f00"
         id="stop111" />
      <stop
         offset="0.792135000228882"
         stop-color="#473600"
         id="stop113" />
      <stop
         offset="0.990000009536743"
         stop-color="#3c2900"
         id="stop115" />
      <stop
         offset="1"
         stop-color="#3c2900"
         id="stop117" />
    </radialGradient>
    <radialGradient
       id="RadialGradient_4"
       gradientUnits="userSpaceOnUse"
       cx="0"
       cy="0"
       r="237.42799"
       gradientTransform="matrix(0,-1,0.886054,0,167.146,112.448)">
      <stop
         offset="0"
         stop-color="#805800"
         id="stop120" />
      <stop
         offset="0.792135000228882"
         stop-color="#4b3800"
         id="stop122" />
      <stop
         offset="0.990000009536743"
         stop-color="#3d2800"
         id="stop124" />
      <stop
         offset="1"
         stop-color="#3d2800"
         id="stop126" />
    </radialGradient>
    <radialGradient
       id="RadialGradient_5"
       gradientUnits="userSpaceOnUse"
       cx="0"
       cy="0"
       r="237.42799"
       gradientTransform="matrix(0,-1,0.886054,0,165.889,109.97)">
      <stop
         offset="0"
         stop-color="#8e6000"
         id="stop129" />
      <stop
         offset="0.792135000228882"
         stop-color="#4e3b00"
         id="stop131" />
      <stop
         offset="0.990000009536743"
         stop-color="#3e2700"
         id="stop133" />
      <stop
         offset="1"
         stop-color="#3e2700"
         id="stop135" />
    </radialGradient>
    <radialGradient
       id="RadialGradient_6"
       gradientUnits="userSpaceOnUse"
       cx="0"
       cy="0"
       r="237.42799"
       gradientTransform="matrix(0,-1,0.886054,0,164.632,107.493)">
      <stop
         offset="0"
         stop-color="#9c6900"
         id="stop138" />
      <stop
         offset="0.792135000228882"
         stop-color="#523d00"
         id="stop140" />
      <stop
         offset="0.990000009536743"
         stop-color="#3f2600"
         id="stop142" />
      <stop
         offset="1"
         stop-color="#3f2600"
         id="stop144" />
    </radialGradient>
    <linearGradient
       id="LinearGradient"
       gradientUnits="userSpaceOnUse"
       x1="0"
       y1="0"
       x2="42.75"
       y2="36.75"
       gradientTransform="translate(218.601,165.399)">
      <stop
         offset="0"
         stop-color="#5c5c5c"
         id="stop147" />
      <stop
         offset="1"
         stop-color="#000000"
         id="stop149" />
    </linearGradient>
    <linearGradient
       id="LinearGradient_1"
       gradientUnits="userSpaceOnUse"
       x1="0"
       y1="0"
       x2="-9.6719999"
       y2="-141.858"
       gradientTransform="translate(181.122,157.792)">
      <stop
         offset="0"
         stop-color="#ffffff"
         id="stop152" />
      <stop
         offset="1"
         stop-color="#cfd1d2"
         id="stop154" />
    </linearGradient>
    <linearGradient
       id="LinearGradient_2"
       gradientUnits="userSpaceOnUse"
       x1="0"
       y1="0"
       x2="69.75"
       y2="-189.75"
       gradientTransform="translate(259.851,172.899)">
      <stop
         offset="0"
         stop-color="#b5b5b5"
         id="stop157" />
      <stop
         offset="1"
         stop-color="#000000"
         id="stop159" />
    </linearGradient>
    <linearGradient
       id="LinearGradient_3"
       gradientUnits="userSpaceOnUse"
       x1="0"
       y1="0"
       x2="-51.527"
       y2="-64.410004"
       gradientTransform="translate(204.11,87.059)">
      <stop
         offset="0"
         stop-color="#df9000"
         id="stop162" />
      <stop
         offset="0.730337023735046"
         stop-color="#7f5200"
         id="stop164" />
      <stop
         offset="0.990000009536743"
         stop-color="#3f2600"
         id="stop166" />
      <stop
         offset="1"
         stop-color="#3f2600"
         id="stop168" />
    </linearGradient>
    <linearGradient
       id="LinearGradient_4"
       gradientUnits="userSpaceOnUse"
       x1="0"
       y1="0"
       x2="19.041"
       y2="85.190002"
       gradientTransform="translate(199.945,96.333)">
      <stop
         offset="0"
         stop-color="#ba7d00"
         id="stop171" />
      <stop
         offset="0.792135000228882"
         stop-color="#7f5200"
         id="stop173" />
      <stop
         offset="0.990000009536743"
         stop-color="#3f2600"
         id="stop175" />
      <stop
         offset="1"
         stop-color="#3f2600"
         id="stop177" />
    </linearGradient>
    <linearGradient
       id="LinearGradient_5"
       gradientUnits="userSpaceOnUse"
       x1="0"
       y1="0"
       x2="-1.007"
       y2="-63.535999"
       gradientTransform="translate(129.134,111.014)">
      <stop
         offset="0"
         stop-color="#df9000"
         id="stop180" />
      <stop
         offset="0.792135000228882"
         stop-color="#7f5200"
         id="stop182" />
      <stop
         offset="0.990000009536743"
         stop-color="#3f2600"
         id="stop184" />
      <stop
         offset="1"
         stop-color="#3f2600"
         id="stop186" />
    </linearGradient>
    <linearGradient
       id="LinearGradient_6"
       gradientUnits="userSpaceOnUse"
       x1="0"
       y1="0"
       x2="15.098"
       y2="58.375"
       gradientTransform="translate(129.286,104.867)">
      <stop
         offset="0"
         stop-color="#df9000"
         id="stop189" />
      <stop
         offset="0.792135000228882"
         stop-color="#7f5200"
         id="stop191" />
      <stop
         offset="0.990000009536743"
         stop-color="#3f2600"
         id="stop193" />
      <stop
         offset="1"
         stop-color="#3f2600"
         id="stop195" />
    </linearGradient>
    <radialGradient
       id="RadialGradient_7"
       gradientUnits="userSpaceOnUse"
       cx="0"
       cy="0"
       r="38.716999"
       gradientTransform="matrix(0.69735527,-0.71672563,1.2319152,1.1986212,183.351,196.899)">
      <stop
         offset="0"
         stop-color="#6b4c29"
         id="stop198" />
      <stop
         offset="1"
         stop-color="#a57348"
         id="stop200" />
    </radialGradient>
    <radialGradient
       id="RadialGradient_8"
       gradientUnits="userSpaceOnUse"
       cx="0"
       cy="0"
       r="120.999"
       gradientTransform="matrix(0,-1,0.973942,0,134.346,314.993)">
      <stop
         offset="0"
         stop-color="#e0bf9e"
         id="stop203" />
      <stop
         offset="1.68539006263018E-02"
         stop-color="#e0bf9e"
         id="stop205" />
      <stop
         offset="0.202246993780136"
         stop-color="#e6b891"
         id="stop207" />
      <stop
         offset="1"
         stop-color="#7b5d39"
         id="stop209" />
    </radialGradient>
    <radialGradient
       id="RadialGradient_9"
       gradientUnits="userSpaceOnUse"
       cx="0"
       cy="0"
       r="87.054001"
       gradientTransform="matrix(-0.01429027,-0.99989789,1.2061368,-0.01723778,146.601,370.899)">
      <stop
         offset="0"
         stop-color="#9a9a9a"
         id="stop212" />
      <stop
         offset="1"
         stop-color="#313131"
         id="stop214" />
    </radialGradient>
    <linearGradient
       id="LinearGradient_7"
       gradientUnits="userSpaceOnUse"
       x1="0"
       y1="0"
       x2="-54"
       y2="-87"
       gradientTransform="translate(213.351,257.649)">
      <stop
         offset="0"
         stop-color="#484848"
         id="stop217" />
      <stop
         offset="1"
         stop-color="#000000"
         id="stop219" />
    </linearGradient>
    <linearGradient
       id="LinearGradient_8"
       gradientUnits="userSpaceOnUse"
       x1="0"
       y1="0"
       x2="10.5"
       y2="-85.5"
       gradientTransform="translate(133.101,343.149)">
      <stop
         offset="0"
         stop-color="#8d8d8d"
         id="stop222" />
      <stop
         offset="1"
         stop-color="#000000"
         id="stop224" />
    </linearGradient>
    <linearGradient
       id="LinearGradient_9"
       gradientUnits="userSpaceOnUse"
       x1="0"
       y1="0"
       x2="3.5999999"
       y2="-129"
       gradientTransform="translate(239.24,380.259)">
      <stop
         offset="0"
         stop-color="#ffffff"
         id="stop227" />
      <stop
         offset="1"
         stop-color="#000000"
         id="stop229" />
    </linearGradient>
    <linearGradient
       id="LinearGradient_10"
       gradientUnits="userSpaceOnUse"
       x1="0"
       y1="0"
       x2="108"
       y2="-33.75"
       gradientTransform="translate(115.007,352.336)">
      <stop
         offset="0"
         stop-color="#ffffff"
         id="stop232" />
      <stop
         offset="1"
         stop-color="#000000"
         id="stop234" />
    </linearGradient>
    <linearGradient
       id="LinearGradient_11"
       gradientUnits="userSpaceOnUse"
       x1="0"
       y1="0"
       x2="-51.527"
       y2="-64.410004"
       gradientTransform="translate(226.61,87.059)">
      <stop
         offset="0"
         stop-color="#df9000"
         id="stop237" />
      <stop
         offset="0.730337023735046"
         stop-color="#7f5200"
         id="stop239" />
      <stop
         offset="0.990000009536743"
         stop-color="#3f2600"
         id="stop241" />
      <stop
         offset="1"
         stop-color="#3f2600"
         id="stop243" />
    </linearGradient>
  </defs>
  <g
     id="g3226"
     transform="matrix(0.64050449,0,0,0.64031522,0,25.600003)">
    <path
       id="path3228"
       d="M 12.48131,-22.483409 C 12.48131,-24.550983 14.164913,-26.225368 16.236527,-26.225368 18.306477,-26.225368 19.991745,-24.550983 19.991745,-22.483409 19.991745,-20.410837 18.306477,-18.738118 16.236527,-18.738118 14.164913,-18.738118 12.48131,-20.410837 12.48131,-22.483409 z M 18.742781,-22.483409 C 18.742781,-23.856238 17.622044,-24.975827 16.236527,-24.975827 14.849345,-24.975827 13.730274,-23.856238 13.730274,-22.483409 13.730274,-21.105582 14.849345,-19.987659 16.236527,-19.987659 17.622044,-19.987659 18.742781,-21.105582 18.742781,-22.483409 z"
       style="fill:#000000;fill-opacity:1;fill-rule:evenodd;stroke:none"
       inkscape:connector-curvature="0" />
    <path
       id="path3230"
       d="M 19.975092,-22.488407 C 19.975092,-24.555981 21.658695,-26.230366 23.730309,-26.230366 25.796928,-26.230366 27.485527,-24.557647 27.485527,-22.488407 27.485527,-20.415835 25.798593,-18.743116 23.730309,-18.743116 21.658695,-18.743116 19.975092,-20.415835 19.975092,-22.488407 z M 26.236563,-22.488407 C 26.236563,-23.85957 25.112496,-24.980825 23.730309,-24.980825 22.343127,-24.980825 21.224056,-23.861236 21.224056,-22.488407 21.224056,-21.11058 22.343127,-19.992657 23.730309,-19.992657 25.114161,-19.992657 26.236563,-21.11058 26.236563,-22.488407 z"
       style="fill:#000000;fill-opacity:1;fill-rule:evenodd;stroke:none"
       inkscape:connector-curvature="0" />
    <path
       id="path3232"
       d="M 21.553782,-6.4609604 C 20.871015,-6.7775108 20.306484,-7.2873235 19.975092,-7.9837344 19.648696,-7.2956538 19.080834,-6.7941713 18.393071,-6.4942815 17.325624,-6.0277861 15.976743,-6.0344504 14.756089,-6.4926154 12.379728,-7.3856208 10.512943,-9.948013 11.578726,-14.139807 L 11.66532,-14.436365 11.177392,-14.634625 C 8.8926212,-15.665913 7.4737985,-17.025414 6.5745446,-18.003388 6.3880327,-18.248298 6.2731281,-18.523197 6.25481,-18.809758 6.2165084,-19.426199 6.6478172,-19.961002 7.3039394,-19.997655 7.6203435,-20.015982 7.9350824,-19.916019 8.2265072,-19.736085 8.3996969,-19.626125 8.5712212,-19.52283 8.7427455,-19.422866 L 8.7427455,-29.973991 C 8.7427455,-31.363481 9.7702263,-32.48307 11.035843,-32.48307 L 28.874374,-32.48307 C 30.139991,-32.48307 31.165806,-31.363481 31.165806,-29.973991 L 31.165806,-19.4212 30.98429,-19.29458 C 31.232418,-19.431197 31.480545,-19.57781 31.732003,-19.736085 32.025093,-19.916019 32.341497,-20.015982 32.657901,-19.997655 33.314024,-19.959336 33.740337,-19.426199 33.705366,-18.814756 33.687048,-18.526529 33.572143,-18.25163 33.355656,-17.971733 32.513022,-17.057069 31.094199,-15.489311 28.79111,-14.399711 L 28.291525,-14.191454 28.379785,-13.891565 C 29.447232,-9.7114332 27.587109,-7.1923584 25.190764,-6.3626631 23.96678,-5.9378192 22.617899,-5.9678082 21.553782,-6.4609604 z M 24.781104,-7.5422299 C 26.60126,-8.1736647 28.319834,-10.229576 26.944309,-14.356394 26.836066,-14.677942 27.005925,-15.026148 27.323994,-15.141106 29.615426,-15.972467 31.084207,-17.373619 32.050073,-18.399909 L 32.196618,-18.558184 31.565475,-18.186654 C 27.463878,-15.925817 23.865197,-16.282353 22.073351,-16.334001 21.517146,-16.357326 21.257361,-16.255696 21.142457,-16.17406 21.054197,-16.109084 20.980924,-16.004122 20.960941,-15.765876 20.920974,-15.299381 20.401405,-15.041142 20.005067,-15.289385 19.682002,-15.494309 19.358937,-15.732555 19.037537,-15.995792 L 18.859351,-16.137406 C 18.762765,-16.227373 18.517968,-16.358992 17.885159,-16.334001 16.093313,-16.282353 12.494632,-15.925817 8.3913704,-18.186654 L 7.7768803,-18.548188 7.8984461,-18.421568 C 8.8443279,-17.46192 10.321436,-16.230706 12.636182,-15.391014 12.954251,-15.276056 13.122445,-14.927851 13.015867,-14.606302 11.642006,-10.47282 13.367242,-8.3502665 15.194059,-7.6621859 16.158259,-7.300652 17.167422,-7.3206446 17.893486,-7.6388611 18.586244,-7.9437491 19.020884,-8.5052096 18.992574,-9.3882186 18.995904,-9.4965122 19.040867,-11.877304 19.044198,-13.679976 19.044198,-14.074831 19.40723,-14.371388 19.795241,-14.291418 19.916807,-14.264761 20.045034,-14.334735 20.37476,-14.29475 L 20.436376,-14.283087 C 20.736127,-14.234772 20.95761,-13.973201 20.95761,-13.668313 20.960941,-11.848981 20.967602,-9.4282039 20.965936,-9.3498993 20.939292,-8.5018775 21.377262,-7.9204243 22.080012,-7.5938776 22.811072,-7.2556685 23.820235,-7.209019 24.781104,-7.5422299 z M 20.040038,-16.797164 20.10998,-16.905458 C 20.193244,-17.007087 20.293161,-17.100386 20.409731,-17.185355 20.849367,-17.503571 21.437212,-17.610199 22.118314,-17.581876 23.76528,-17.53356 26.612917,-17.263659 29.945152,-18.771439 L 29.945152,-28.841074 C 29.945152,-30.4938 29.415592,-31.14856 27.91517,-31.14856 L 12.126604,-31.14856 C 10.541253,-31.14856 10.099953,-30.597096 10.099953,-28.841074 L 10.099953,-18.731454 C 13.393886,-17.266992 16.208218,-17.535226 17.843527,-17.581876 18.41472,-17.605201 18.925962,-17.53356 19.333957,-17.316973 L 19.663684,-17.087058 19.818555,-16.970434 20.040038,-16.797164 z"
       style="fill:#000000;fill-opacity:1;fill-rule:evenodd;stroke:none"
       inkscape:connector-curvature="0" />
    <path
       id="path3234"
       d="M 0,-3.651992 0,-36.328324 C 0,-38.342584 1.6353097,-39.980316 3.6503044,-39.980316 L 36.318198,-39.980316 C 38.331527,-39.980316 39.968502,-38.342584 39.968502,-36.328324 L 39.968502,-3.651992 C 39.968502,-1.6360658 38.331527,0 36.318198,0 L 3.6503044,0 C 1.6353097,0 0,-1.6360658 0,-3.651992 z M 38.719538,-3.651992 38.719538,-36.328324 C 38.719538,-37.651172 37.640434,-38.730775 36.318198,-38.730775 L 3.6503044,-38.730775 C 2.326403,-38.730775 1.2489636,-37.651172 1.2489636,-36.328324 L 1.2489636,-3.651992 C 1.2489636,-2.3274785 2.326403,-1.2495411 3.6503044,-1.2495411 L 36.318198,-1.2495411 C 37.640434,-1.2495411 38.719538,-2.3274785 38.719538,-3.651992 z"
       style="fill:#000000;fill-opacity:1;fill-rule:evenodd;stroke:none"
       inkscape:connector-curvature="0" />
  </g>
</svg>
