<?xml version="1.0" encoding="UTF-8" standalone="no"?>
<!--Generator: Xara Designer (www.xara.com), SVG filter version: 3.0.2.3-->

<svg
   xmlns:dc="http://purl.org/dc/elements/1.1/"
   xmlns:cc="http://creativecommons.org/ns#"
   xmlns:rdf="http://www.w3.org/1999/02/22-rdf-syntax-ns#"
   xmlns:svg="http://www.w3.org/2000/svg"
   xmlns="http://www.w3.org/2000/svg"
   xmlns:xlink="http://www.w3.org/1999/xlink"
   xmlns:sodipodi="http://sodipodi.sourceforge.net/DTD/sodipodi-0.dtd"
   xmlns:inkscape="http://www.inkscape.org/namespaces/inkscape"
   version="1.1"
   overflow="visible"
   width="32"
   height="32"
   viewBox="0 0 25.600005 25.600001"
   id="svg2"
   inkscape:version="0.48.4 r9939"
   sodipodi:docname="slideshare.svg"
   style="fill-rule:evenodd;stroke-width:0.50099999;stroke-linejoin:bevel;overflow:visible">
  <script
     xlink:href=""
     id="script3301" />
  <script
     xlink:href=""
     id="script3299" />
  <metadata
     id="metadata322">
    <rdf:RDF>
      <cc:Work
         rdf:about="">
        <dc:format>image/svg+xml</dc:format>
        <dc:type
           rdf:resource="http://purl.org/dc/dcmitype/StillImage" />
        <dc:title></dc:title>
      </cc:Work>
    </rdf:RDF>
  </metadata>
  <sodipodi:namedview
     pagecolor="#ffffff"
     bordercolor="#666666"
     borderopacity="1"
     objecttolerance="10"
     gridtolerance="10"
     guidetolerance="10"
     inkscape:pageopacity="0"
     inkscape:pageshadow="2"
     inkscape:window-width="1858"
     inkscape:window-height="1058"
     id="namedview320"
     showgrid="false"
     inkscape:zoom="14.250004"
     inkscape:cx="23.789457"
     inkscape:cy="10.943206"
     inkscape:window-x="-8"
     inkscape:window-y="-8"
     inkscape:window-maximized="1"
     inkscape:current-layer="svg2"
     height="744.09px"
     width="512px" />
  <defs
     id="defs4">
    <marker
       id="DefaultArrow2"
       markerUnits="strokeWidth"
       viewBox="0 0 1 1"
       markerWidth="1"
       markerHeight="1"
       overflow="visible"
       orient="auto"
       style="overflow:visible">
      <!-- REF_ARROW_STRAIGHT (-2) -->
      <g
         transform="scale(0.00925926,0.00925926)"
         id="g7">
        <!-- 1/108 -->
        <path
           d="M -9,54 -9,-54 117,0 z"
           id="path9"
           inkscape:connector-curvature="0" />
      </g>
    </marker>
    <marker
       id="DefaultArrow3"
       markerUnits="strokeWidth"
       viewBox="0 0 1 1"
       markerWidth="1"
       markerHeight="1"
       overflow="visible"
       orient="auto"
       style="overflow:visible">
      <!-- REF_ARROW_ANGLED -->
      <g
         transform="scale(0.00925926,0.00925926)"
         id="g12">
        <path
           d="M -27,54 -9,0 -27,-54 135,0 z"
           id="path14"
           inkscape:connector-curvature="0" />
      </g>
    </marker>
    <marker
       id="DefaultArrow4"
       markerUnits="strokeWidth"
       viewBox="0 0 1 1"
       markerWidth="1"
       markerHeight="1"
       overflow="visible"
       orient="auto"
       style="overflow:visible">
      <!-- REF_ARROW_ROUNDED -->
      <g
         transform="scale(0.00925926,0.00925926)"
         id="g17">
        <path
           d="M -9,0 -9,-45 C -9,-51.708 2.808,-56.58 9,-54 L 117,-9 C 120.916,-7.369 126,-4.242 126,0 126,4.242 120.916,7.369 117,9 L 9,54 C 2.808,56.58 -9,51.708 -9,45 z"
           id="path19"
           inkscape:connector-curvature="0" />
      </g>
    </marker>
    <marker
       id="DefaultArrow5"
       markerUnits="strokeWidth"
       viewBox="0 0 1 1"
       markerWidth="1"
       markerHeight="1"
       overflow="visible"
       orient="auto"
       style="overflow:visible">
      <!-- REF_ARROW_SPOT -->
      <g
         transform="scale(0.00925926,0.00925926)"
         id="g22">
        <path
           d="M -54,0 C -54,29.807 -29.807,54 0,54 29.807,54 54,29.807 54,0 54,-29.807 29.807,-54 0,-54 -29.807,-54 -54,-29.807 -54,0 z"
           id="path24"
           inkscape:connector-curvature="0" />
      </g>
    </marker>
    <marker
       id="DefaultArrow6"
       markerUnits="strokeWidth"
       viewBox="0 0 1 1"
       markerWidth="1"
       markerHeight="1"
       overflow="visible"
       orient="auto"
       style="overflow:visible">
      <!-- REF_ARROW_DIAMOND -->
      <g
         transform="scale(0.00925926,0.00925926)"
         id="g27">
        <path
           d="M -63,0 0,63 63,0 0,-63 z"
           id="path29"
           inkscape:connector-curvature="0" />
      </g>
    </marker>
    <marker
       id="DefaultArrow7"
       markerUnits="strokeWidth"
       viewBox="0 0 1 1"
       markerWidth="1"
       markerHeight="1"
       overflow="visible"
       orient="auto"
       style="overflow:visible">
      <!-- REF_ARROW_FEATHER -->
      <g
         transform="scale(0.00925926,0.00925926)"
         id="g32">
        <path
           d="M 18,-54 108,-54 63,0 108,54 18,54 -36,0 z"
           id="path34"
           inkscape:connector-curvature="0" />
      </g>
    </marker>
    <marker
       id="DefaultArrow8"
       markerUnits="strokeWidth"
       viewBox="0 0 1 1"
       markerWidth="1"
       markerHeight="1"
       overflow="visible"
       orient="auto"
       style="overflow:visible">
      <!-- REF_ARROW_FEATHER2 -->
      <g
         transform="scale(0.00925926,0.00925926)"
         id="g37">
        <path
           d="M -36,0 18,-54 54,-54 18,-18 27,-18 63,-54 99,-54 63,-18 72,-18 108,-54 144,-54 90,0 144,54 108,54 72,18 63,18 99,54 63,54 27,18 18,18 54,54 18,54 z"
           id="path39"
           inkscape:connector-curvature="0" />
      </g>
    </marker>
    <marker
       id="DefaultArrow9"
       markerUnits="strokeWidth"
       viewBox="0 0 1 1"
       markerWidth="1"
       markerHeight="1"
       overflow="visible"
       orient="auto"
       style="overflow:visible">
      <!-- REF_ARROW_HOLLOWDIAMOND -->
      <g
         transform="scale(0.00925926,0.00925926)"
         id="g42">
        <path
           d="M 0,45 -45,0 0,-45 45,0 z M 0,63 -63,0 0,-63 63,0 z"
           id="path44"
           inkscape:connector-curvature="0" />
      </g>
    </marker>
    <filter
       id="StainedFilter"
       color-interpolation-filters="sRGB">
      <feBlend
         mode="multiply"
         in2="BackgroundImage"
         in="SourceGraphic"
         result="blend"
         id="feBlend47" />
      <feComposite
         in="blend"
         in2="SourceAlpha"
         operator="in"
         result="comp"
         id="feComposite49" />
    </filter>
    <filter
       id="BleachFilter"
       color-interpolation-filters="sRGB">
      <feBlend
         mode="screen"
         in2="BackgroundImage"
         in="SourceGraphic"
         result="blend"
         id="feBlend52" />
      <feComposite
         in="blend"
         in2="SourceAlpha"
         operator="in"
         result="comp"
         id="feComposite54" />
    </filter>
    <filter
       id="InvertTransparencyBitmapFilter"
       color-interpolation-filters="sRGB">
      <feComponentTransfer
         id="feComponentTransfer57">
        <feFuncR
           type="gamma"
           amplitude="1.055"
           exponent=".416666666"
           offset="-0.055"
           id="feFuncR59" />
        <feFuncG
           type="gamma"
           amplitude="1.055"
           exponent=".416666666"
           offset="-0.055"
           id="feFuncG61" />
        <feFuncB
           type="gamma"
           amplitude="1.055"
           exponent=".416666666"
           offset="-0.055"
           id="feFuncB63" />
      </feComponentTransfer>
      <feComponentTransfer
         id="feComponentTransfer65">
        <feFuncR
           type="linear"
           slope="-1"
           intercept="1"
           id="feFuncR67" />
        <feFuncG
           type="linear"
           slope="-1"
           intercept="1"
           id="feFuncG69" />
        <feFuncB
           type="linear"
           slope="-1"
           intercept="1"
           id="feFuncB71" />
        <feFuncA
           type="linear"
           slope="1"
           intercept="0"
           id="feFuncA73" />
      </feComponentTransfer>
      <feComponentTransfer
         id="feComponentTransfer75">
        <feFuncR
           type="gamma"
           amplitude="1"
           exponent="2.4"
           offset="0"
           id="feFuncR77" />
        <feFuncG
           type="gamma"
           amplitude="1"
           exponent="2.4"
           offset="0"
           id="feFuncG79" />
        <feFuncB
           type="gamma"
           amplitude="1"
           exponent="2.4"
           offset="0"
           id="feFuncB81" />
      </feComponentTransfer>
    </filter>
    <radialGradient
       id="RadialGradient"
       gradientUnits="userSpaceOnUse"
       cx="0"
       cy="0"
       r="237.42799"
       gradientTransform="matrix(0,-1,0.886054,0,172.174,122.358)">
      <stop
         offset="0"
         stop-color="#473600"
         id="stop84" />
      <stop
         offset="0.792135000228882"
         stop-color="#3d2f00"
         id="stop86" />
      <stop
         offset="0.990000009536743"
         stop-color="#3a2c00"
         id="stop88" />
      <stop
         offset="1"
         stop-color="#3a2c00"
         id="stop90" />
    </radialGradient>
    <radialGradient
       id="RadialGradient_1"
       gradientUnits="userSpaceOnUse"
       cx="0"
       cy="0"
       r="237.42799"
       gradientTransform="matrix(0,-1,0.886054,0,170.916,119.88)">
      <stop
         offset="0"
         stop-color="#553e00"
         id="stop93" />
      <stop
         offset="0.792135000228882"
         stop-color="#403200"
         id="stop95" />
      <stop
         offset="0.990000009536743"
         stop-color="#3b2b00"
         id="stop97" />
      <stop
         offset="1"
         stop-color="#3b2b00"
         id="stop99" />
    </radialGradient>
    <radialGradient
       id="RadialGradient_2"
       gradientUnits="userSpaceOnUse"
       cx="0"
       cy="0"
       r="237.42799"
       gradientTransform="matrix(0,-1,0.886054,0,169.66,117.403)">
      <stop
         offset="0"
         stop-color="#634700"
         id="stop102" />
      <stop
         offset="0.792135000228882"
         stop-color="#443400"
         id="stop104" />
      <stop
         offset="0.990000009536743"
         stop-color="#3c2a00"
         id="stop106" />
      <stop
         offset="1"
         stop-color="#3c2a00"
         id="stop108" />
    </radialGradient>
    <radialGradient
       id="RadialGradient_3"
       gradientUnits="userSpaceOnUse"
       cx="0"
       cy="0"
       r="237.42799"
       gradientTransform="matrix(0,-1,0.886054,0,168.403,114.925)">
      <stop
         offset="0"
         stop-color="#724f00"
         id="stop111" />
      <stop
         offset="0.792135000228882"
         stop-color="#473600"
         id="stop113" />
      <stop
         offset="0.990000009536743"
         stop-color="#3c2900"
         id="stop115" />
      <stop
         offset="1"
         stop-color="#3c2900"
         id="stop117" />
    </radialGradient>
    <radialGradient
       id="RadialGradient_4"
       gradientUnits="userSpaceOnUse"
       cx="0"
       cy="0"
       r="237.42799"
       gradientTransform="matrix(0,-1,0.886054,0,167.146,112.448)">
      <stop
         offset="0"
         stop-color="#805800"
         id="stop120" />
      <stop
         offset="0.792135000228882"
         stop-color="#4b3800"
         id="stop122" />
      <stop
         offset="0.990000009536743"
         stop-color="#3d2800"
         id="stop124" />
      <stop
         offset="1"
         stop-color="#3d2800"
         id="stop126" />
    </radialGradient>
    <radialGradient
       id="RadialGradient_5"
       gradientUnits="userSpaceOnUse"
       cx="0"
       cy="0"
       r="237.42799"
       gradientTransform="matrix(0,-1,0.886054,0,165.889,109.97)">
      <stop
         offset="0"
         stop-color="#8e6000"
         id="stop129" />
      <stop
         offset="0.792135000228882"
         stop-color="#4e3b00"
         id="stop131" />
      <stop
         offset="0.990000009536743"
         stop-color="#3e2700"
         id="stop133" />
      <stop
         offset="1"
         stop-color="#3e2700"
         id="stop135" />
    </radialGradient>
    <radialGradient
       id="RadialGradient_6"
       gradientUnits="userSpaceOnUse"
       cx="0"
       cy="0"
       r="237.42799"
       gradientTransform="matrix(0,-1,0.886054,0,164.632,107.493)">
      <stop
         offset="0"
         stop-color="#9c6900"
         id="stop138" />
      <stop
         offset="0.792135000228882"
         stop-color="#523d00"
         id="stop140" />
      <stop
         offset="0.990000009536743"
         stop-color="#3f2600"
         id="stop142" />
      <stop
         offset="1"
         stop-color="#3f2600"
         id="stop144" />
    </radialGradient>
    <linearGradient
       id="LinearGradient"
       gradientUnits="userSpaceOnUse"
       x1="0"
       y1="0"
       x2="42.75"
       y2="36.75"
       gradientTransform="translate(218.601,165.399)">
      <stop
         offset="0"
         stop-color="#5c5c5c"
         id="stop147" />
      <stop
         offset="1"
         stop-color="#000000"
         id="stop149" />
    </linearGradient>
    <linearGradient
       id="LinearGradient_1"
       gradientUnits="userSpaceOnUse"
       x1="0"
       y1="0"
       x2="-9.6719999"
       y2="-141.858"
       gradientTransform="translate(181.122,157.792)">
      <stop
         offset="0"
         stop-color="#ffffff"
         id="stop152" />
      <stop
         offset="1"
         stop-color="#cfd1d2"
         id="stop154" />
    </linearGradient>
    <linearGradient
       id="LinearGradient_2"
       gradientUnits="userSpaceOnUse"
       x1="0"
       y1="0"
       x2="69.75"
       y2="-189.75"
       gradientTransform="translate(259.851,172.899)">
      <stop
         offset="0"
         stop-color="#b5b5b5"
         id="stop157" />
      <stop
         offset="1"
         stop-color="#000000"
         id="stop159" />
    </linearGradient>
    <linearGradient
       id="LinearGradient_3"
       gradientUnits="userSpaceOnUse"
       x1="0"
       y1="0"
       x2="-51.527"
       y2="-64.410004"
       gradientTransform="translate(204.11,87.059)">
      <stop
         offset="0"
         stop-color="#df9000"
         id="stop162" />
      <stop
         offset="0.730337023735046"
         stop-color="#7f5200"
         id="stop164" />
      <stop
         offset="0.990000009536743"
         stop-color="#3f2600"
         id="stop166" />
      <stop
         offset="1"
         stop-color="#3f2600"
         id="stop168" />
    </linearGradient>
    <linearGradient
       id="LinearGradient_4"
       gradientUnits="userSpaceOnUse"
       x1="0"
       y1="0"
       x2="19.041"
       y2="85.190002"
       gradientTransform="translate(199.945,96.333)">
      <stop
         offset="0"
         stop-color="#ba7d00"
         id="stop171" />
      <stop
         offset="0.792135000228882"
         stop-color="#7f5200"
         id="stop173" />
      <stop
         offset="0.990000009536743"
         stop-color="#3f2600"
         id="stop175" />
      <stop
         offset="1"
         stop-color="#3f2600"
         id="stop177" />
    </linearGradient>
    <linearGradient
       id="LinearGradient_5"
       gradientUnits="userSpaceOnUse"
       x1="0"
       y1="0"
       x2="-1.007"
       y2="-63.535999"
       gradientTransform="translate(129.134,111.014)">
      <stop
         offset="0"
         stop-color="#df9000"
         id="stop180" />
      <stop
         offset="0.792135000228882"
         stop-color="#7f5200"
         id="stop182" />
      <stop
         offset="0.990000009536743"
         stop-color="#3f2600"
         id="stop184" />
      <stop
         offset="1"
         stop-color="#3f2600"
         id="stop186" />
    </linearGradient>
    <linearGradient
       id="LinearGradient_6"
       gradientUnits="userSpaceOnUse"
       x1="0"
       y1="0"
       x2="15.098"
       y2="58.375"
       gradientTransform="translate(129.286,104.867)">
      <stop
         offset="0"
         stop-color="#df9000"
         id="stop189" />
      <stop
         offset="0.792135000228882"
         stop-color="#7f5200"
         id="stop191" />
      <stop
         offset="0.990000009536743"
         stop-color="#3f2600"
         id="stop193" />
      <stop
         offset="1"
         stop-color="#3f2600"
         id="stop195" />
    </linearGradient>
    <radialGradient
       id="RadialGradient_7"
       gradientUnits="userSpaceOnUse"
       cx="0"
       cy="0"
       r="38.716999"
       gradientTransform="matrix(0.69735527,-0.71672563,1.2319152,1.1986212,183.351,196.899)">
      <stop
         offset="0"
         stop-color="#6b4c29"
         id="stop198" />
      <stop
         offset="1"
         stop-color="#a57348"
         id="stop200" />
    </radialGradient>
    <radialGradient
       id="RadialGradient_8"
       gradientUnits="userSpaceOnUse"
       cx="0"
       cy="0"
       r="120.999"
       gradientTransform="matrix(0,-1,0.973942,0,134.346,314.993)">
      <stop
         offset="0"
         stop-color="#e0bf9e"
         id="stop203" />
      <stop
         offset="1.68539006263018E-02"
         stop-color="#e0bf9e"
         id="stop205" />
      <stop
         offset="0.202246993780136"
         stop-color="#e6b891"
         id="stop207" />
      <stop
         offset="1"
         stop-color="#7b5d39"
         id="stop209" />
    </radialGradient>
    <radialGradient
       id="RadialGradient_9"
       gradientUnits="userSpaceOnUse"
       cx="0"
       cy="0"
       r="87.054001"
       gradientTransform="matrix(-0.01429027,-0.99989789,1.2061368,-0.01723778,146.601,370.899)">
      <stop
         offset="0"
         stop-color="#9a9a9a"
         id="stop212" />
      <stop
         offset="1"
         stop-color="#313131"
         id="stop214" />
    </radialGradient>
    <linearGradient
       id="LinearGradient_7"
       gradientUnits="userSpaceOnUse"
       x1="0"
       y1="0"
       x2="-54"
       y2="-87"
       gradientTransform="translate(213.351,257.649)">
      <stop
         offset="0"
         stop-color="#484848"
         id="stop217" />
      <stop
         offset="1"
         stop-color="#000000"
         id="stop219" />
    </linearGradient>
    <linearGradient
       id="LinearGradient_8"
       gradientUnits="userSpaceOnUse"
       x1="0"
       y1="0"
       x2="10.5"
       y2="-85.5"
       gradientTransform="translate(133.101,343.149)">
      <stop
         offset="0"
         stop-color="#8d8d8d"
         id="stop222" />
      <stop
         offset="1"
         stop-color="#000000"
         id="stop224" />
    </linearGradient>
    <linearGradient
       id="LinearGradient_9"
       gradientUnits="userSpaceOnUse"
       x1="0"
       y1="0"
       x2="3.5999999"
       y2="-129"
       gradientTransform="translate(239.24,380.259)">
      <stop
         offset="0"
         stop-color="#ffffff"
         id="stop227" />
      <stop
         offset="1"
         stop-color="#000000"
         id="stop229" />
    </linearGradient>
    <linearGradient
       id="LinearGradient_10"
       gradientUnits="userSpaceOnUse"
       x1="0"
       y1="0"
       x2="108"
       y2="-33.75"
       gradientTransform="translate(115.007,352.336)">
      <stop
         offset="0"
         stop-color="#ffffff"
         id="stop232" />
      <stop
         offset="1"
         stop-color="#000000"
         id="stop234" />
    </linearGradient>
    <linearGradient
       id="LinearGradient_11"
       gradientUnits="userSpaceOnUse"
       x1="0"
       y1="0"
       x2="-51.527"
       y2="-64.410004"
       gradientTransform="translate(226.61,87.059)">
      <stop
         offset="0"
         stop-color="#df9000"
         id="stop237" />
      <stop
         offset="0.730337023735046"
         stop-color="#7f5200"
         id="stop239" />
      <stop
         offset="0.990000009536743"
         stop-color="#3f2600"
         id="stop241" />
      <stop
         offset="1"
         stop-color="#3f2600"
         id="stop243" />
    </linearGradient>
  </defs>
  <g
     id="g3249"
     transform="matrix(0.64050449,0,0,0.64031522,0,25.600003)">
    <path
       id="path3251"
       d="M 17.915135,-21.653714 C 17.094149,-22.485075 17.517131,-24.006183 18.611224,-25.109111 19.122466,-25.623922 19.723634,-25.993786 20.309814,-26.155394 20.882672,-26.312003 21.56877,-26.297008 22.053367,-25.808854 22.872688,-24.977493 22.451371,-23.458051 21.357278,-22.355123 20.846036,-21.840312 20.243203,-21.470448 19.657023,-21.30884 19.084165,-21.152231 18.399732,-21.167226 17.915135,-21.653714 z M 19.327296,-22.515064 C 19.667014,-22.608363 20.085001,-22.846609 20.469682,-23.236466 20.856028,-23.624657 21.094163,-24.046168 21.185754,-24.391042 21.282341,-24.747577 21.197411,-24.899188 21.165771,-24.930843 21.132465,-24.964165 20.984255,-25.044135 20.641206,-24.94917 20.301488,-24.855871 19.883501,-24.617625 19.49882,-24.227768 19.112474,-23.839578 18.874339,-23.4164 18.781083,-23.073192 18.684496,-22.714991 18.771091,-22.565046 18.802731,-22.535057 18.836037,-22.501736 18.982582,-22.420099 19.327296,-22.515064 z"
       style="fill:#000000;fill-opacity:1;fill-rule:evenodd;stroke:none"
       inkscape:connector-curvature="0" />
    <path
       id="path3253"
       d="M 7.4937819,-9.3515654 7.4937819,-23.349758 C 7.4937819,-25.250726 8.4696388,-26.348656 9.4954543,-26.83681 L 22.459697,-33.257785 22.739465,-33.411062 C 23.642049,-33.840904 25.185768,-34.160787 25.968452,-33.552677 26.213249,-33.364413 26.378112,-33.089514 26.409753,-32.749638 L 26.411418,-32.548046 26.413083,-17.911755 C 26.386439,-16.948775 26.033398,-16.165729 25.180772,-15.677575 L 24.787765,-15.487645 12.50962,-9.8363873 12.456331,-9.8147286 C 12.398046,-9.7930699 12.349753,-9.7497525 12.319777,-9.6931066 L 12.313116,-9.6364608 12.466322,-9.6381268 C 12.62952,-9.6514552 12.89097,-9.6931066 13.322279,-9.8130626 L 26.249885,-13.934882 C 26.969288,-14.194787 27.179114,-14.363058 27.299015,-14.596306 27.457217,-14.897862 27.523828,-15.426001 27.523828,-16.637223 L 27.537151,-25.67557 C 27.537151,-25.998785 27.783613,-26.267019 28.105013,-26.297008 29.760306,-26.446953 32.549658,-25.91215 32.476385,-23.339761 L 32.449741,-9.3115801 C 32.483047,-7.3356391 31.332335,-6.2560356 29.310679,-6.2560356 L 10.661154,-6.2560356 C 8.6295062,-6.2560356 7.4937819,-7.3473015 7.4937819,-9.3515654 z M 31.199112,-9.3032498 31.229087,-23.358088 C 31.255732,-24.334396 30.374796,-24.874198 29.312344,-25.025809 L 28.782784,-25.039137 28.772792,-16.635557 C 28.772792,-15.492643 28.729494,-14.642955 28.40976,-14.021517 28.051724,-13.330104 27.413919,-13.028548 26.65455,-12.750317 L 13.723613,-8.6301637 13.653671,-8.608505 C 12.836016,-8.3819215 12.206538,-8.2986188 11.730267,-8.5018775 11.54542,-8.5818481 11.398875,-8.6968059 11.287301,-8.8317563 11.235677,-8.8934003 11.194045,-8.9550444 11.159074,-9.0150223 11.129099,-9.0633379 11.10745,-9.1149856 11.092462,-9.1699654 10.929265,-9.7714112 11.145752,-10.356196 11.563738,-10.714398 L 11.990051,-10.965972 24.31649,-16.647219 C 24.925984,-16.890463 25.145801,-17.260327 25.16412,-17.926749 L 25.16412,-32.56304 25.077525,-32.614688 C 24.689513,-32.696325 23.675355,-32.559708 23.075852,-32.173184 L 23.014237,-32.138196 10.040002,-25.712223 C 9.4171859,-25.417331 8.7427455,-24.742579 8.7427455,-23.349758 L 8.7427455,-9.3515654 C 8.7427455,-8.0720353 9.2972854,-7.5055767 10.661154,-7.5055767 L 29.310679,-7.5055767 C 30.674547,-7.5055767 31.222426,-8.0653711 31.199112,-9.3032498 z"
       style="fill:#000000;fill-opacity:1;fill-rule:evenodd;stroke:none"
       inkscape:connector-curvature="0" />
    <path
       id="path3255"
       d="M 0,-3.651992 0,-36.328324 C 0,-38.342584 1.6353097,-39.980316 3.6503044,-39.980316 L 36.318198,-39.980316 C 38.331527,-39.980316 39.968502,-38.342584 39.968502,-36.328324 L 39.968502,-3.651992 C 39.968502,-1.6360658 38.331527,0 36.318198,0 L 3.6503044,0 C 1.6353097,0 0,-1.6360658 0,-3.651992 z M 38.719538,-3.651992 38.719538,-36.328324 C 38.719538,-37.651172 37.640434,-38.730775 36.318198,-38.730775 L 3.6503044,-38.730775 C 2.326403,-38.730775 1.2489636,-37.651172 1.2489636,-36.328324 L 1.2489636,-3.651992 C 1.2489636,-2.3274785 2.326403,-1.2495411 3.6503044,-1.2495411 L 36.318198,-1.2495411 C 37.640434,-1.2495411 38.719538,-2.3274785 38.719538,-3.651992 z"
       style="fill:#000000;fill-opacity:1;fill-rule:evenodd;stroke:none"
       inkscape:connector-curvature="0" />
  </g>
</svg>
